<?xml version="1.0" encoding="UTF-8"?><svg xmlns="http://www.w3.org/2000/svg" viewBox="0 0 400 400"><defs><style>.e{fill:#fff;}</style></defs><g id="a"/><g id="b"><g><path class="e" d="M250.56,138.38v-2.68h-4.13v2.68h-38.79v-2.68h-4.13v2.68h-9.39v68.72h68.72v-68.72h-12.28Zm8.16,64.59h-60.46v-47.66h60.46v47.66Zm0-51.79h-60.46v-8.67h5.26v2.79h4.13v-2.79h38.79v2.79h4.13v-2.79h8.16v8.67Z"/><path class="e" d="M206.69,169.62c1.64,0,2.97-1.33,2.97-2.97s-1.33-2.97-2.97-2.97-2.97,1.33-2.97,2.97,1.33,2.97,2.97,2.97Z"/><path class="e" d="M217.59,169.62c1.64,0,2.97-1.33,2.97-2.97s-1.33-2.97-2.97-2.97-2.97,1.33-2.97,2.97,1.33,2.97,2.97,2.97Z"/><path class="e" d="M228.49,169.62c1.64,0,2.97-1.33,2.97-2.97s-1.33-2.97-2.97-2.97-2.97,1.33-2.97,2.97,1.33,2.97,2.97,2.97Z"/><path class="e" d="M239.39,169.62c1.64,0,2.97-1.33,2.97-2.97s-1.33-2.97-2.97-2.97-2.97,1.33-2.97,2.97,1.33,2.97,2.97,2.97Z"/><circle class="e" cx="250.29" cy="166.65" r="2.97"/><path class="e" d="M206.69,182.97c1.64,0,2.97-1.33,2.97-2.97s-1.33-2.97-2.97-2.97-2.97,1.33-2.97,2.97,1.33,2.97,2.97,2.97Z"/><path class="e" d="M217.59,182.97c1.64,0,2.97-1.33,2.97-2.97s-1.33-2.97-2.97-2.97-2.97,1.33-2.97,2.97,1.33,2.97,2.97,2.97Z"/><path class="e" d="M228.49,182.97c1.64,0,2.97-1.33,2.97-2.97s-1.33-2.97-2.97-2.97-2.97,1.33-2.97,2.97,1.33,2.97,2.97,2.97Z"/><path class="e" d="M239.39,182.97c1.64,0,2.97-1.33,2.97-2.97s-1.33-2.97-2.97-2.97-2.97,1.33-2.97,2.97,1.33,2.97,2.97,2.97Z"/><path class="e" d="M250.29,182.97c1.64,0,2.97-1.33,2.97-2.97s-1.33-2.97-2.97-2.97-2.97,1.33-2.97,2.97,1.33,2.97,2.97,2.97Z"/><path class="e" d="M206.69,196.32c1.64,0,2.97-1.33,2.97-2.97s-1.33-2.97-2.97-2.97-2.97,1.33-2.97,2.97,1.33,2.97,2.97,2.97Z"/><path class="e" d="M217.59,196.32c1.64,0,2.97-1.33,2.97-2.97s-1.33-2.97-2.97-2.97-2.97,1.33-2.97,2.97,1.33,2.97,2.97,2.97Z"/><path class="e" d="M228.49,196.32c1.64,0,2.97-1.33,2.97-2.97s-1.33-2.97-2.97-2.97-2.97,1.33-2.97,2.97,1.33,2.97,2.97,2.97Z"/><path class="e" d="M239.39,196.32c1.64,0,2.97-1.33,2.97-2.97s-1.33-2.97-2.97-2.97-2.97,1.33-2.97,2.97,1.33,2.97,2.97,2.97Z"/><circle class="e" cx="250.29" cy="193.35" r="2.97"/></g><g><path class="e" d="M190.28,237.17v-13.6h10.08v2.3h-7.34v3.01h6.83v2.29h-6.83v3.7h7.6v2.29h-10.34Z"/><path class="e" d="M205.64,237.17l-3.97-9.85h2.74l1.86,5.03,.54,1.68c.14-.43,.23-.71,.27-.84,.09-.28,.18-.56,.28-.83l1.87-5.03h2.68l-3.92,9.85h-2.35Z"/><path class="e" d="M219.2,234.03l2.6,.44c-.33,.95-.86,1.68-1.58,2.17-.72,.5-1.62,.75-2.7,.75-1.71,0-2.98-.56-3.8-1.68-.65-.9-.97-2.03-.97-3.39,0-1.63,.43-2.91,1.28-3.84,.85-.92,1.93-1.39,3.24-1.39,1.47,0,2.62,.48,3.47,1.45s1.25,2.45,1.22,4.45h-6.53c.02,.77,.23,1.38,.63,1.8,.4,.43,.9,.64,1.5,.64,.41,0,.75-.11,1.03-.33s.49-.58,.63-1.08Zm.15-2.63c-.02-.75-.21-1.33-.58-1.72s-.82-.59-1.35-.59c-.57,0-1.04,.21-1.41,.62s-.55,.98-.55,1.69h3.9Z"/><path class="e" d="M233.03,237.17h-2.61v-5.03c0-1.06-.06-1.75-.17-2.06-.11-.31-.29-.55-.54-.73-.25-.17-.55-.26-.9-.26-.45,0-.86,.12-1.22,.37-.36,.25-.6,.57-.74,.98s-.2,1.16-.2,2.26v4.46h-2.61v-9.85h2.42v1.45c.86-1.11,1.94-1.67,3.25-1.67,.58,0,1.1,.1,1.58,.31,.48,.21,.84,.47,1.08,.79,.24,.32,.41,.69,.51,1.09s.14,.99,.14,1.75v6.12Z"/><path class="e" d="M240.19,227.32v2.08h-1.78v3.97c0,.8,.02,1.27,.05,1.41,.03,.13,.11,.24,.23,.33,.12,.09,.27,.13,.44,.13,.24,0,.59-.08,1.05-.25l.22,2.02c-.61,.26-1.29,.39-2.06,.39-.47,0-.89-.08-1.27-.24-.38-.16-.65-.36-.83-.61-.18-.25-.3-.59-.37-1.02-.06-.3-.08-.92-.08-1.84v-4.3h-1.2v-2.08h1.2v-1.96l2.62-1.52v3.48h1.78Z"/><path class="e" d="M241.39,232.1c0-.87,.21-1.7,.64-2.51,.43-.81,1.03-1.43,1.81-1.86,.78-.43,1.66-.64,2.62-.64,1.49,0,2.71,.48,3.66,1.45s1.43,2.19,1.43,3.67-.48,2.73-1.44,3.71c-.96,.98-2.17,1.47-3.63,1.47-.9,0-1.76-.2-2.58-.61s-1.44-1.01-1.87-1.79c-.43-.79-.64-1.75-.64-2.88Zm2.67,.14c0,.98,.23,1.72,.7,2.24s1.04,.78,1.72,.78,1.25-.26,1.71-.78,.69-1.27,.69-2.26-.23-1.71-.69-2.23-1.03-.78-1.71-.78-1.25,.26-1.72,.78-.7,1.27-.7,2.25Z"/><path class="e" d="M252.69,234.36l2.62-.4c.11,.51,.34,.89,.68,1.16s.82,.39,1.43,.39c.67,0,1.18-.12,1.52-.37,.23-.17,.34-.41,.34-.7,0-.2-.06-.36-.19-.49-.13-.12-.42-.24-.87-.34-2.1-.46-3.44-.89-4-1.27-.78-.53-1.17-1.27-1.17-2.22,0-.85,.34-1.57,1.01-2.15,.67-.58,1.72-.87,3.14-.87s2.35,.22,3.01,.66c.66,.44,1.11,1.09,1.35,1.95l-2.46,.46c-.11-.38-.3-.68-.6-.88-.29-.21-.71-.31-1.26-.31-.69,0-1.18,.1-1.47,.29-.2,.14-.3,.31-.3,.53,0,.19,.09,.34,.26,.47,.23,.17,1.05,.42,2.44,.73,1.39,.32,2.36,.7,2.91,1.16,.54,.46,.82,1.11,.82,1.94,0,.9-.38,1.68-1.13,2.33-.75,.65-1.87,.97-3.35,.97-1.34,0-2.4-.27-3.19-.82s-1.29-1.28-1.54-2.22Z"/><path class="e" d="M163.34,248.98v-2.41h2.61v2.41h-2.61Zm0,11.19v-9.85h2.61v9.85h-2.61Z"/><path class="e" d="M177.58,260.17h-2.61v-5.03c0-1.06-.06-1.75-.17-2.06-.11-.31-.29-.55-.54-.73-.25-.17-.55-.26-.9-.26-.45,0-.86,.12-1.21,.37-.36,.25-.6,.57-.74,.98-.13,.41-.2,1.16-.2,2.26v4.46h-2.61v-9.85h2.42v1.45c.86-1.11,1.94-1.67,3.25-1.67,.58,0,1.1,.1,1.58,.31,.48,.21,.84,.47,1.08,.79,.24,.32,.41,.69,.51,1.09,.1,.41,.14,.99,.14,1.75v6.12Z"/><path class="e" d="M179.31,257.36l2.62-.4c.11,.51,.34,.89,.68,1.16s.82,.39,1.43,.39c.67,0,1.18-.12,1.52-.37,.23-.17,.34-.41,.34-.7,0-.2-.06-.36-.19-.49-.13-.12-.42-.24-.87-.34-2.1-.46-3.44-.89-4-1.27-.78-.53-1.17-1.27-1.17-2.22,0-.85,.34-1.57,1.01-2.15,.67-.58,1.72-.87,3.14-.87s2.35,.22,3.01,.66c.66,.44,1.11,1.09,1.35,1.95l-2.46,.46c-.11-.38-.3-.68-.6-.88-.29-.21-.71-.31-1.26-.31-.69,0-1.18,.1-1.47,.29-.2,.14-.3,.31-.3,.53,0,.19,.09,.34,.26,.47,.23,.17,1.05,.42,2.44,.73,1.39,.32,2.36,.7,2.91,1.16,.54,.46,.82,1.11,.82,1.94,0,.9-.38,1.68-1.13,2.33-.75,.65-1.87,.97-3.35,.97-1.34,0-2.4-.27-3.19-.82s-1.29-1.28-1.54-2.22Z"/><path class="e" d="M195.31,250.32v2.08h-1.78v3.97c0,.8,.02,1.27,.05,1.41,.03,.13,.11,.24,.23,.33,.12,.09,.27,.13,.44,.13,.24,0,.59-.08,1.05-.25l.22,2.02c-.61,.26-1.29,.39-2.06,.39-.47,0-.89-.08-1.27-.24-.38-.16-.65-.36-.83-.61-.18-.25-.3-.59-.37-1.02-.06-.3-.08-.92-.08-1.84v-4.3h-1.2v-2.08h1.2v-1.96l2.62-1.52v3.48h1.78Z"/><path class="e" d="M197.12,248.98v-2.41h2.61v2.41h-2.61Zm0,11.19v-9.85h2.61v9.85h-2.61Z"/><path class="e" d="M206.92,250.32v2.08h-1.78v3.97c0,.8,.02,1.27,.05,1.41,.03,.13,.11,.24,.23,.33,.12,.09,.27,.13,.44,.13,.24,0,.59-.08,1.05-.25l.22,2.02c-.61,.26-1.29,.39-2.06,.39-.47,0-.89-.08-1.27-.24-.38-.16-.65-.36-.83-.61-.18-.25-.3-.59-.37-1.02-.06-.3-.08-.92-.08-1.84v-4.3h-1.2v-2.08h1.2v-1.96l2.62-1.52v3.48h1.78Z"/><path class="e" d="M215.21,260.17v-1.47c-.36,.53-.83,.94-1.42,1.24-.58,.3-1.2,.46-1.85,.46s-1.26-.15-1.78-.44c-.53-.29-.91-.7-1.14-1.22-.24-.53-.35-1.25-.35-2.18v-6.23h2.61v4.53c0,1.39,.05,2.23,.14,2.55s.27,.56,.52,.74c.25,.18,.58,.27,.96,.27,.45,0,.84-.12,1.2-.37s.59-.55,.72-.91c.13-.36,.2-1.25,.2-2.66v-4.16h2.61v9.85h-2.42Z"/><path class="e" d="M228.92,253.23l-2.57,.46c-.09-.51-.28-.9-.59-1.16-.31-.26-.7-.39-1.19-.39-.65,0-1.17,.22-1.55,.67-.39,.45-.58,1.2-.58,2.25,0,1.17,.2,2,.59,2.48,.39,.48,.92,.72,1.58,.72,.5,0,.9-.14,1.22-.42,.32-.28,.54-.77,.67-1.45l2.56,.44c-.27,1.17-.78,2.06-1.53,2.66-.75,.6-1.77,.9-3.03,.9-1.44,0-2.59-.46-3.45-1.36-.86-.91-1.28-2.17-1.28-3.78s.43-2.89,1.29-3.8,2.02-1.36,3.49-1.36c1.2,0,2.15,.26,2.86,.77,.71,.52,1.22,1.3,1.53,2.36Z"/><path class="e" d="M230.9,248.98v-2.41h2.61v2.41h-2.61Zm0,11.19v-9.85h2.61v9.85h-2.61Z"/><path class="e" d="M235.57,255.1c0-.87,.21-1.7,.64-2.51,.43-.81,1.03-1.43,1.81-1.86,.78-.43,1.66-.64,2.62-.64,1.49,0,2.71,.48,3.66,1.45s1.43,2.19,1.43,3.67-.48,2.73-1.44,3.71c-.96,.98-2.17,1.47-3.63,1.47-.9,0-1.76-.2-2.58-.61s-1.44-1.01-1.87-1.79c-.43-.79-.64-1.75-.64-2.88Zm2.67,.14c0,.98,.23,1.72,.7,2.24s1.04,.78,1.72,.78,1.25-.26,1.71-.78,.69-1.27,.69-2.26-.23-1.71-.69-2.23-1.03-.78-1.71-.78-1.25,.26-1.72,.78-.7,1.27-.7,2.25Z"/><path class="e" d="M256.74,260.17h-2.61v-5.03c0-1.06-.06-1.75-.17-2.06-.11-.31-.29-.55-.54-.73-.25-.17-.55-.26-.9-.26-.45,0-.86,.12-1.22,.37-.36,.25-.6,.57-.74,.98s-.2,1.16-.2,2.26v4.46h-2.61v-9.85h2.42v1.45c.86-1.11,1.94-1.67,3.25-1.67,.58,0,1.1,.1,1.58,.31,.48,.21,.84,.47,1.08,.79,.24,.32,.41,.69,.51,1.09s.14,.99,.14,1.75v6.12Z"/><path class="e" d="M261.34,253.32l-2.37-.43c.27-.95,.72-1.66,1.37-2.12s1.61-.69,2.89-.69c1.16,0,2.03,.14,2.6,.41s.97,.62,1.2,1.05c.23,.42,.35,1.2,.35,2.33l-.03,3.04c0,.87,.04,1.5,.12,1.92,.08,.41,.24,.85,.47,1.32h-2.58c-.07-.17-.15-.43-.25-.77-.04-.16-.07-.26-.09-.31-.45,.43-.92,.76-1.43,.97-.51,.22-1.05,.32-1.62,.32-1.01,0-1.81-.28-2.4-.83-.58-.55-.88-1.25-.88-2.09,0-.56,.13-1.05,.4-1.49,.27-.44,.64-.77,1.12-1,.48-.23,1.17-.43,2.07-.61,1.22-.23,2.06-.44,2.53-.64v-.26c0-.5-.12-.86-.37-1.07-.25-.21-.71-.32-1.4-.32-.46,0-.83,.09-1.08,.27s-.47,.5-.63,.96Zm3.49,2.12c-.33,.11-.86,.24-1.59,.4-.72,.15-1.2,.31-1.42,.45-.34,.24-.51,.55-.51,.92s.14,.68,.41,.95c.27,.27,.62,.4,1.04,.4,.47,0,.92-.15,1.35-.46,.32-.24,.52-.52,.62-.86,.07-.22,.1-.65,.1-1.27v-.52Z"/><path class="e" d="M269.96,260.17v-13.6h2.61v13.6h-2.61Z"/><path class="e" d="M280.94,257.03l2.6,.44c-.33,.95-.86,1.68-1.58,2.17-.72,.5-1.62,.75-2.7,.75-1.71,0-2.98-.56-3.8-1.68-.65-.9-.97-2.03-.97-3.39,0-1.63,.43-2.91,1.28-3.84,.85-.92,1.93-1.39,3.24-1.39,1.47,0,2.62,.48,3.47,1.45s1.25,2.45,1.22,4.45h-6.53c.02,.77,.23,1.38,.63,1.8,.4,.43,.9,.64,1.5,.64,.41,0,.75-.11,1.03-.33s.49-.58,.63-1.08Zm.15-2.63c-.02-.75-.21-1.33-.58-1.72s-.82-.59-1.35-.59c-.57,0-1.04,.21-1.41,.62s-.55,.98-.55,1.69h3.9Z"/><path class="e" d="M284.88,257.36l2.62-.4c.11,.51,.34,.89,.68,1.16s.82,.39,1.43,.39c.67,0,1.18-.12,1.52-.37,.23-.17,.34-.41,.34-.7,0-.2-.06-.36-.19-.49-.13-.12-.42-.24-.87-.34-2.1-.46-3.44-.89-4-1.27-.78-.53-1.17-1.27-1.17-2.22,0-.85,.34-1.57,1.01-2.15,.67-.58,1.72-.87,3.14-.87s2.35,.22,3.01,.66c.66,.44,1.11,1.09,1.35,1.95l-2.46,.46c-.11-.38-.3-.68-.6-.88-.29-.21-.71-.31-1.26-.31-.69,0-1.18,.1-1.47,.29-.2,.14-.3,.31-.3,.53,0,.19,.09,.34,.26,.47,.23,.17,1.05,.42,2.44,.73,1.39,.32,2.36,.7,2.91,1.16,.54,.46,.82,1.11,.82,1.94,0,.9-.38,1.68-1.13,2.33-.75,.65-1.87,.97-3.35,.97-1.34,0-2.4-.27-3.19-.82s-1.29-1.28-1.54-2.22Z"/></g><path class="e" d="M300.41,278.38H156.93l-27.55-28.12v-111.78l24.94-24.99h147.24l26.06,26.49v111.43l-27.2,26.97Zm-142.07-4.98h140.69l24.08-23.86v-107.72l-23.44-23.83H156.18l-22.31,22.35v108.09l24.46,24.97Z"/></g><g id="c"/><g id="d"/></svg>