<?xml version="1.0" encoding="UTF-8"?><svg xmlns="http://www.w3.org/2000/svg" viewBox="0 0 400 400"><defs><style>.e{fill:#fff;}</style></defs><g id="a"/><g id="b"><path class="e" d="M279.18,278.38H121.17l-27.55-28.12v-111.78l24.94-24.99h161.76l26.06,26.49v111.43l-27.2,26.97Zm-156.6-4.98h155.22l24.08-23.86v-107.72l-23.44-23.83H120.43l-22.31,22.35v108.09l24.46,24.97Z"/><g><path class="e" d="M120.78,231.41v-2.29h5.92v5.42c-.58,.56-1.41,1.05-2.5,1.47-1.09,.42-2.2,.64-3.32,.64-1.42,0-2.66-.3-3.72-.9s-1.85-1.45-2.38-2.56c-.53-1.11-.8-2.32-.8-3.62,0-1.42,.3-2.67,.89-3.78,.59-1.1,1.46-1.94,2.61-2.53,.87-.45,1.96-.68,3.26-.68,1.69,0,3.01,.35,3.96,1.06,.95,.71,1.56,1.69,1.83,2.94l-2.73,.51c-.19-.67-.55-1.19-1.08-1.58-.53-.39-1.19-.58-1.98-.58-1.2,0-2.15,.38-2.86,1.14-.71,.76-1.06,1.89-1.06,3.39,0,1.61,.36,2.83,1.08,3.63,.72,.81,1.66,1.21,2.82,1.21,.58,0,1.15-.11,1.73-.34,.58-.23,1.07-.5,1.49-.82v-1.72h-3.15Z"/><path class="e" d="M134.91,233.27l2.6,.44c-.33,.95-.86,1.68-1.58,2.17-.72,.5-1.62,.75-2.7,.75-1.71,0-2.98-.56-3.8-1.68-.65-.9-.97-2.03-.97-3.39,0-1.63,.43-2.91,1.28-3.84,.85-.92,1.93-1.39,3.24-1.39,1.47,0,2.62,.48,3.47,1.45s1.25,2.45,1.22,4.45h-6.53c.02,.77,.23,1.38,.63,1.8,.4,.43,.9,.64,1.5,.64,.41,0,.75-.11,1.03-.33s.49-.58,.63-1.08Zm.15-2.63c-.02-.75-.21-1.33-.58-1.72s-.82-.59-1.35-.59c-.57,0-1.04,.21-1.41,.62s-.55,.98-.55,1.69h3.9Z"/><path class="e" d="M139.17,231.34c0-.87,.21-1.7,.64-2.51,.43-.81,1.03-1.43,1.81-1.86,.78-.43,1.66-.64,2.62-.64,1.49,0,2.71,.48,3.67,1.45,.95,.97,1.43,2.19,1.43,3.67s-.48,2.73-1.44,3.71c-.96,.98-2.17,1.47-3.63,1.47-.9,0-1.76-.2-2.58-.61-.82-.41-1.44-1.01-1.87-1.79-.43-.79-.64-1.75-.64-2.88Zm2.67,.14c0,.98,.23,1.72,.7,2.24s1.04,.78,1.72,.78,1.25-.26,1.71-.78c.46-.52,.69-1.27,.69-2.26s-.23-1.71-.69-2.23c-.46-.52-1.03-.78-1.71-.78s-1.25,.26-1.72,.78-.7,1.27-.7,2.25Z"/><path class="e" d="M153.88,236.41h-2.61v-9.85h2.42v1.4c.41-.66,.79-1.1,1.12-1.31s.71-.32,1.13-.32c.59,0,1.17,.16,1.72,.49l-.81,2.27c-.44-.28-.85-.43-1.22-.43s-.67,.1-.93,.3-.45,.56-.6,1.09c-.14,.53-.22,1.63-.22,3.3v3.04Z"/><path class="e" d="M161.27,236.41h-2.61v-9.85h2.42v1.4c.41-.66,.79-1.1,1.12-1.31,.33-.21,.71-.32,1.13-.32,.59,0,1.17,.16,1.72,.49l-.81,2.27c-.44-.28-.85-.43-1.22-.43s-.67,.1-.93,.3c-.25,.2-.45,.56-.6,1.09s-.22,1.63-.22,3.3v3.04Z"/><path class="e" d="M171.88,233.27l2.6,.44c-.33,.95-.86,1.68-1.58,2.17-.72,.5-1.62,.75-2.7,.75-1.71,0-2.98-.56-3.8-1.68-.65-.9-.97-2.03-.97-3.39,0-1.63,.43-2.91,1.28-3.84,.85-.92,1.93-1.39,3.24-1.39,1.47,0,2.62,.48,3.47,1.45s1.25,2.45,1.22,4.45h-6.53c.02,.77,.23,1.38,.63,1.8,.4,.43,.9,.64,1.5,.64,.41,0,.75-.11,1.03-.33s.49-.58,.63-1.08Zm.15-2.63c-.02-.75-.21-1.33-.58-1.72s-.82-.59-1.35-.59c-.57,0-1.04,.21-1.41,.62s-.55,.98-.55,1.69h3.9Z"/><path class="e" d="M175.6,226.55h1.45v-.74c0-.83,.09-1.45,.26-1.86,.18-.41,.5-.74,.97-1,.47-.26,1.07-.38,1.79-.38s1.47,.11,2.18,.33l-.35,1.82c-.42-.1-.81-.15-1.2-.15s-.65,.09-.81,.26c-.16,.18-.25,.52-.25,1.02v.7h1.95v2.05h-1.95v7.8h-2.61v-7.8h-1.45v-2.05Z"/><path class="e" d="M188.77,233.27l2.6,.44c-.33,.95-.86,1.68-1.58,2.17-.72,.5-1.62,.75-2.7,.75-1.71,0-2.98-.56-3.8-1.68-.65-.9-.97-2.03-.97-3.39,0-1.63,.43-2.91,1.28-3.84,.85-.92,1.93-1.39,3.24-1.39,1.47,0,2.62,.48,3.47,1.45,.85,.97,1.25,2.45,1.21,4.45h-6.53c.02,.77,.23,1.38,.63,1.8s.9,.64,1.5,.64c.41,0,.75-.11,1.03-.33s.49-.58,.63-1.08Zm.15-2.63c-.02-.75-.21-1.33-.58-1.72s-.82-.59-1.35-.59c-.57,0-1.04,.21-1.41,.62s-.55,.98-.55,1.69h3.9Z"/><path class="e" d="M196.13,236.41h-2.61v-9.85h2.42v1.4c.41-.66,.79-1.1,1.12-1.31s.71-.32,1.13-.32c.59,0,1.17,.16,1.72,.49l-.81,2.27c-.44-.28-.85-.43-1.22-.43s-.67,.1-.93,.3-.45,.56-.6,1.09c-.14,.53-.22,1.63-.22,3.3v3.04Z"/><path class="e" d="M206.73,233.27l2.6,.44c-.33,.95-.86,1.68-1.58,2.17-.72,.5-1.62,.75-2.7,.75-1.71,0-2.98-.56-3.8-1.68-.65-.9-.97-2.03-.97-3.39,0-1.63,.43-2.91,1.28-3.84,.85-.92,1.93-1.39,3.24-1.39,1.47,0,2.62,.48,3.47,1.45,.85,.97,1.25,2.45,1.21,4.45h-6.53c.02,.77,.23,1.38,.63,1.8s.9,.64,1.5,.64c.41,0,.75-.11,1.03-.33s.49-.58,.63-1.08Zm.15-2.63c-.02-.75-.21-1.33-.58-1.72s-.82-.59-1.35-.59c-.57,0-1.04,.21-1.41,.62s-.55,.98-.55,1.69h3.9Z"/><path class="e" d="M220.55,236.41h-2.61v-5.03c0-1.06-.06-1.75-.17-2.06-.11-.31-.29-.55-.54-.73-.25-.17-.55-.26-.9-.26-.45,0-.86,.12-1.21,.37-.36,.25-.6,.57-.74,.98-.13,.41-.2,1.16-.2,2.26v4.46h-2.61v-9.85h2.42v1.45c.86-1.11,1.94-1.67,3.25-1.67,.58,0,1.1,.1,1.58,.31,.48,.21,.84,.47,1.08,.79,.24,.32,.41,.69,.51,1.09,.1,.41,.14,.99,.14,1.75v6.12Z"/><path class="e" d="M231.79,229.47l-2.57,.46c-.09-.51-.28-.9-.59-1.16-.31-.26-.7-.39-1.19-.39-.65,0-1.17,.22-1.55,.67-.39,.45-.58,1.2-.58,2.25,0,1.17,.2,2,.59,2.48s.92,.72,1.58,.72c.49,0,.9-.14,1.21-.42,.32-.28,.54-.77,.67-1.45l2.56,.44c-.27,1.17-.78,2.06-1.53,2.66-.75,.6-1.77,.9-3.03,.9-1.44,0-2.59-.46-3.45-1.36-.86-.91-1.29-2.17-1.29-3.78s.43-2.89,1.29-3.8c.86-.91,2.02-1.36,3.49-1.36,1.2,0,2.15,.26,2.86,.77,.71,.52,1.22,1.3,1.53,2.36Z"/><path class="e" d="M233.77,225.22v-2.41h2.61v2.41h-2.61Zm0,11.19v-9.85h2.61v9.85h-2.61Z"/><path class="e" d="M240.99,229.56l-2.37-.43c.27-.95,.72-1.66,1.37-2.12s1.61-.69,2.89-.69c1.16,0,2.03,.14,2.6,.41,.57,.28,.97,.62,1.2,1.05,.23,.42,.35,1.2,.35,2.33l-.03,3.04c0,.87,.04,1.5,.12,1.92,.08,.41,.24,.85,.47,1.32h-2.58c-.07-.17-.15-.43-.25-.77-.04-.16-.07-.26-.09-.31-.45,.43-.92,.76-1.43,.97-.51,.22-1.05,.32-1.62,.32-1.01,0-1.81-.28-2.4-.83-.58-.55-.88-1.25-.88-2.09,0-.56,.13-1.05,.4-1.49,.27-.44,.64-.77,1.12-1,.48-.23,1.17-.43,2.07-.61,1.22-.23,2.06-.44,2.53-.64v-.26c0-.5-.12-.86-.37-1.07-.25-.21-.71-.32-1.4-.32-.46,0-.83,.09-1.09,.27s-.47,.5-.63,.96Zm3.49,2.12c-.33,.11-.86,.24-1.59,.4-.72,.15-1.2,.31-1.42,.45-.34,.24-.51,.55-.51,.92s.14,.68,.41,.95c.27,.27,.62,.4,1.04,.4,.47,0,.92-.15,1.34-.46,.32-.24,.52-.52,.62-.86,.07-.22,.1-.65,.1-1.27v-.52Z"/><path class="e" d="M258.2,229.47l-2.57,.46c-.09-.51-.28-.9-.59-1.16-.31-.26-.7-.39-1.19-.39-.65,0-1.17,.22-1.55,.67-.39,.45-.58,1.2-.58,2.25,0,1.17,.2,2,.59,2.48,.39,.48,.92,.72,1.58,.72,.5,0,.9-.14,1.22-.42,.32-.28,.54-.77,.67-1.45l2.56,.44c-.27,1.17-.78,2.06-1.53,2.66-.75,.6-1.77,.9-3.03,.9-1.44,0-2.59-.46-3.45-1.36-.86-.91-1.28-2.17-1.28-3.78s.43-2.89,1.29-3.8,2.02-1.36,3.49-1.36c1.2,0,2.15,.26,2.86,.77,.71,.52,1.22,1.3,1.53,2.36Z"/><path class="e" d="M260.18,225.22v-2.41h2.61v2.41h-2.61Zm0,11.19v-9.85h2.61v9.85h-2.61Z"/><path class="e" d="M264.85,231.34c0-.87,.21-1.7,.64-2.51,.43-.81,1.03-1.43,1.81-1.86,.78-.43,1.66-.64,2.62-.64,1.49,0,2.71,.48,3.66,1.45s1.43,2.19,1.43,3.67-.48,2.73-1.44,3.71c-.96,.98-2.17,1.47-3.63,1.47-.9,0-1.76-.2-2.58-.61s-1.44-1.01-1.87-1.79c-.43-.79-.64-1.75-.64-2.88Zm2.67,.14c0,.98,.23,1.72,.7,2.24s1.04,.78,1.72,.78,1.25-.26,1.71-.78,.69-1.27,.69-2.26-.23-1.71-.69-2.23-1.03-.78-1.71-.78-1.25,.26-1.72,.78-.7,1.27-.7,2.25Zm1.09-6.13l1.28-2.77h2.92l-2.55,2.77h-1.65Z"/><path class="e" d="M286.02,236.41h-2.61v-5.03c0-1.06-.06-1.75-.17-2.06-.11-.31-.29-.55-.54-.73-.25-.17-.55-.26-.9-.26-.45,0-.86,.12-1.22,.37-.36,.25-.6,.57-.74,.98s-.2,1.16-.2,2.26v4.46h-2.61v-9.85h2.42v1.45c.86-1.11,1.94-1.67,3.25-1.67,.58,0,1.1,.1,1.58,.31,.48,.21,.84,.47,1.08,.79,.24,.32,.41,.69,.51,1.09s.14,.99,.14,1.75v6.12Z"/><path class="e" d="M150.81,250.55h2.43v1.45c.32-.5,.74-.9,1.28-1.21s1.13-.46,1.79-.46c1.14,0,2.12,.45,2.91,1.34,.8,.9,1.2,2.15,1.2,3.75s-.4,2.92-1.21,3.84-1.78,1.37-2.92,1.37c-.54,0-1.04-.11-1.48-.32-.44-.22-.91-.59-1.4-1.11v4.96h-2.61v-13.6Zm2.58,4.76c0,1.11,.22,1.93,.66,2.45,.44,.53,.97,.79,1.6,.79s1.11-.24,1.51-.73c.4-.49,.6-1.28,.6-2.39,0-1.03-.21-1.8-.62-2.3-.42-.5-.93-.75-1.54-.75s-1.17,.25-1.59,.74c-.42,.49-.63,1.22-.63,2.18Z"/><path class="e" d="M168.97,260.41v-1.47c-.36,.53-.83,.94-1.42,1.24-.58,.3-1.2,.46-1.85,.46s-1.26-.15-1.78-.44c-.53-.29-.91-.7-1.14-1.22-.24-.53-.35-1.25-.35-2.18v-6.23h2.61v4.53c0,1.39,.05,2.23,.14,2.55,.1,.31,.27,.56,.52,.74s.58,.27,.96,.27c.45,0,.84-.12,1.2-.37s.59-.55,.72-.91c.13-.36,.19-1.25,.19-2.66v-4.16h2.61v9.85h-2.42Z"/><path class="e" d="M183.06,260.41h-2.61v-5.03c0-1.06-.06-1.75-.17-2.06-.11-.31-.29-.55-.54-.73-.25-.17-.55-.26-.9-.26-.45,0-.86,.12-1.22,.37-.36,.25-.6,.57-.74,.98s-.2,1.16-.2,2.26v4.46h-2.61v-9.85h2.42v1.45c.86-1.11,1.94-1.67,3.25-1.67,.58,0,1.1,.1,1.58,.31,.48,.21,.84,.47,1.08,.79,.24,.32,.41,.69,.51,1.09s.14,.99,.14,1.75v6.12Z"/><path class="e" d="M190.22,250.55v2.08h-1.78v3.97c0,.8,.02,1.27,.05,1.41,.03,.13,.11,.24,.23,.33,.12,.09,.27,.13,.44,.13,.24,0,.59-.08,1.05-.25l.22,2.02c-.61,.26-1.29,.39-2.06,.39-.47,0-.89-.08-1.27-.24-.38-.16-.65-.36-.83-.61-.18-.25-.3-.59-.37-1.02-.06-.3-.08-.92-.08-1.84v-4.3h-1.2v-2.08h1.2v-1.96l2.62-1.52v3.48h1.78Z"/><path class="e" d="M191.42,255.34c0-.87,.21-1.7,.64-2.51,.43-.81,1.03-1.43,1.81-1.86,.78-.43,1.66-.64,2.62-.64,1.49,0,2.71,.48,3.66,1.45s1.43,2.19,1.43,3.67-.48,2.73-1.44,3.71c-.96,.98-2.17,1.47-3.63,1.47-.9,0-1.76-.2-2.58-.61s-1.44-1.01-1.87-1.79c-.43-.79-.64-1.75-.64-2.88Zm2.67,.14c0,.98,.23,1.72,.7,2.24s1.04,.78,1.72,.78,1.25-.26,1.71-.78,.69-1.27,.69-2.26-.23-1.71-.69-2.23-1.03-.78-1.71-.78-1.25,.26-1.72,.78-.7,1.27-.7,2.25Z"/><path class="e" d="M202.71,257.6l2.62-.4c.11,.51,.34,.89,.68,1.16s.82,.39,1.43,.39c.67,0,1.18-.12,1.52-.37,.23-.17,.34-.41,.34-.7,0-.2-.06-.36-.19-.49-.13-.12-.42-.24-.87-.34-2.1-.46-3.44-.89-4-1.27-.78-.53-1.17-1.27-1.17-2.22,0-.85,.34-1.57,1.01-2.15,.67-.58,1.72-.87,3.14-.87s2.35,.22,3.01,.66c.66,.44,1.11,1.09,1.35,1.95l-2.46,.46c-.11-.38-.3-.68-.6-.88-.29-.21-.71-.31-1.26-.31-.69,0-1.18,.1-1.47,.29-.2,.14-.3,.31-.3,.53,0,.19,.09,.34,.26,.47,.23,.17,1.05,.42,2.44,.73,1.39,.32,2.36,.7,2.91,1.16,.54,.46,.82,1.11,.82,1.94,0,.9-.38,1.68-1.13,2.33-.75,.65-1.87,.97-3.35,.97-1.34,0-2.4-.27-3.19-.82s-1.29-1.28-1.54-2.22Z"/><path class="e" d="M225.18,257.27l2.6,.44c-.33,.95-.86,1.68-1.58,2.17-.72,.5-1.62,.75-2.7,.75-1.71,0-2.98-.56-3.8-1.68-.65-.9-.97-2.03-.97-3.39,0-1.63,.43-2.91,1.28-3.84,.85-.92,1.93-1.39,3.24-1.39,1.47,0,2.62,.48,3.47,1.45,.85,.97,1.25,2.45,1.21,4.45h-6.53c.02,.77,.23,1.38,.63,1.8s.9,.64,1.5,.64c.41,0,.75-.11,1.03-.33s.49-.58,.63-1.08Zm.15-2.63c-.02-.75-.21-1.33-.58-1.72s-.82-.59-1.35-.59c-.57,0-1.04,.21-1.41,.62s-.55,.98-.55,1.69h3.9Z"/><path class="e" d="M238.64,253.47l-2.57,.46c-.09-.51-.28-.9-.59-1.16-.31-.26-.7-.39-1.19-.39-.65,0-1.17,.22-1.55,.67-.39,.45-.58,1.2-.58,2.25,0,1.17,.2,2,.59,2.48,.39,.48,.92,.72,1.58,.72,.5,0,.9-.14,1.22-.42,.32-.28,.54-.77,.67-1.45l2.56,.44c-.27,1.17-.78,2.06-1.53,2.66-.75,.6-1.77,.9-3.03,.9-1.44,0-2.59-.46-3.45-1.36-.86-.91-1.28-2.17-1.28-3.78s.43-2.89,1.29-3.8,2.02-1.36,3.49-1.36c1.2,0,2.15,.26,2.86,.77,.71,.52,1.22,1.3,1.53,2.36Z"/><path class="e" d="M240.01,255.34c0-.87,.21-1.7,.64-2.51,.43-.81,1.03-1.43,1.81-1.86,.78-.43,1.66-.64,2.62-.64,1.49,0,2.71,.48,3.67,1.45,.95,.97,1.43,2.19,1.43,3.67s-.48,2.73-1.44,3.71c-.96,.98-2.17,1.47-3.63,1.47-.9,0-1.76-.2-2.58-.61-.82-.41-1.44-1.01-1.87-1.79-.43-.79-.64-1.75-.64-2.88Zm2.67,.14c0,.98,.23,1.72,.7,2.24s1.04,.78,1.72,.78,1.25-.26,1.71-.78c.46-.52,.69-1.27,.69-2.26s-.23-1.71-.69-2.23c-.46-.52-1.03-.78-1.71-.78s-1.25,.26-1.72,.78-.7,1.27-.7,2.25Z"/></g></g><g id="c"/><g id="d"><g><path class="e" d="M226.14,158.12c-.87-5.82-3.33-10.86-7.54-14.93-6.66-6.46-14.67-8.84-23.8-7.17-4.12,.75-7.82,2.52-11.11,5.13-4.44,3.52-7.49,7.99-9.07,13.43-1.06,3.67-1.37,7.4-.67,11.19,.84,4.51,2.65,8.61,5.16,12.41,5.82,8.82,11.65,17.64,17.45,26.47,.72,1.1,1.57,2.01,2.87,2.38h1.12c1.3-.38,2.15-1.28,2.87-2.38,3.8-5.8,7.65-11.57,11.45-17.38,2.6-3.97,5.32-7.88,7.68-11.99,3.05-5.28,4.49-11,3.57-17.16Zm-2.94,5.38c-.31,3.73-1.47,7.27-3.45,10.45-3.08,4.96-6.32,9.82-9.52,14.71-3.16,4.83-6.35,9.64-9.53,14.46-.19,.29-.4,.56-.69,.95-.27-.35-.46-.58-.62-.82-5.91-8.95-11.83-17.9-17.73-26.87-2.43-3.69-4.17-7.68-4.79-12.1-.46-3.27-.06-6.46,.96-9.57,1.59-4.86,4.5-8.79,8.66-11.78,3.08-2.21,6.5-3.63,10.27-4.08,8.5-1.03,15.63,1.7,21.16,8.22,3.99,4.7,5.79,10.26,5.28,16.45Z"/><path class="e" d="M200.01,147.91c-7.7,0-14,6.29-13.99,14,0,7.73,6.29,13.99,14.01,13.97,7.73-.02,13.98-6.3,13.96-14.02-.02-7.68-6.29-13.94-13.97-13.95Zm-.2,24.87c-5.96-.1-10.81-5.1-10.69-11.02,.12-5.99,5.08-10.86,10.97-10.75,6.04,.11,10.89,5.05,10.8,10.99-.09,6.05-5.06,10.88-11.08,10.77Z"/></g></g></svg>