<?xml version="1.0" encoding="UTF-8"?><svg xmlns="http://www.w3.org/2000/svg" viewBox="0 0 400 400"><defs><style>.e{fill:#fff;}</style></defs><g id="a"/><g id="b"/><g id="c"/><g id="d"><g><path class="e" d="M147.98,252.62v-13.6h2.75v13.6h-2.75Z"/><path class="e" d="M162.28,252.62h-2.61v-5.03c0-1.06-.05-1.75-.17-2.06-.11-.31-.29-.55-.54-.73-.25-.17-.55-.26-.9-.26-.45,0-.86,.12-1.22,.37-.36,.25-.6,.57-.74,.98s-.2,1.16-.2,2.26v4.46h-2.61v-9.85h2.42v1.45c.86-1.11,1.94-1.67,3.25-1.67,.58,0,1.1,.1,1.58,.31,.48,.21,.84,.47,1.08,.79,.24,.32,.41,.69,.51,1.09,.1,.41,.14,.99,.14,1.75v6.12Z"/><path class="e" d="M173.96,252.62h-2.42v-1.45c-.4,.56-.88,.98-1.42,1.26-.55,.28-1.1,.41-1.66,.41-1.13,0-2.1-.46-2.91-1.37-.81-.91-1.21-2.18-1.21-3.82s.39-2.94,1.18-3.81c.79-.87,1.78-1.3,2.98-1.3,1.1,0,2.05,.46,2.86,1.37v-4.9h2.61v13.6Zm-6.96-5.14c0,1.05,.14,1.81,.44,2.28,.42,.68,1.01,1.02,1.76,1.02,.6,0,1.11-.25,1.53-.77,.42-.51,.63-1.27,.63-2.29,0-1.13-.2-1.95-.61-2.45-.41-.5-.93-.75-1.57-.75s-1.14,.25-1.55,.74c-.42,.49-.63,1.23-.63,2.2Z"/><path class="e" d="M176.53,241.44v-2.41h2.61v2.41h-2.61Zm0,11.19v-9.85h2.61v9.85h-2.61Z"/><path class="e" d="M190.4,245.69l-2.57,.46c-.09-.51-.28-.9-.59-1.16-.31-.26-.7-.39-1.19-.39-.65,0-1.17,.22-1.55,.67-.39,.45-.58,1.2-.58,2.25,0,1.17,.2,2,.59,2.48,.39,.48,.92,.72,1.58,.72,.5,0,.9-.14,1.22-.42,.31-.28,.54-.77,.67-1.45l2.56,.44c-.27,1.17-.78,2.06-1.53,2.66-.75,.6-1.77,.9-3.03,.9-1.44,0-2.59-.46-3.45-1.36-.86-.91-1.29-2.17-1.29-3.78s.43-2.89,1.29-3.8c.86-.91,2.02-1.36,3.49-1.36,1.2,0,2.15,.26,2.86,.77,.71,.52,1.22,1.3,1.53,2.36Z"/><path class="e" d="M194.33,245.78l-2.37-.43c.27-.95,.72-1.66,1.37-2.12,.65-.46,1.62-.69,2.89-.69,1.16,0,2.03,.14,2.6,.41,.57,.28,.97,.62,1.2,1.05,.23,.42,.35,1.2,.35,2.33l-.03,3.04c0,.87,.04,1.5,.12,1.92,.08,.41,.24,.85,.47,1.32h-2.58c-.07-.17-.15-.43-.25-.77-.04-.16-.07-.26-.09-.31-.45,.43-.92,.76-1.43,.97-.51,.22-1.05,.32-1.62,.32-1.01,0-1.81-.28-2.4-.83-.58-.55-.88-1.25-.88-2.09,0-.56,.13-1.05,.4-1.49,.27-.44,.64-.77,1.12-1,.48-.23,1.17-.43,2.07-.61,1.22-.23,2.06-.44,2.53-.64v-.26c0-.5-.12-.86-.37-1.07-.25-.21-.71-.32-1.4-.32-.46,0-.83,.09-1.08,.27s-.47,.5-.63,.96Zm3.49,2.12c-.33,.11-.86,.24-1.59,.4-.72,.15-1.2,.31-1.42,.45-.34,.24-.51,.55-.51,.92s.14,.68,.41,.95c.27,.27,.62,.4,1.04,.4,.47,0,.92-.15,1.35-.46,.32-.24,.52-.52,.62-.86,.07-.22,.1-.65,.1-1.27v-.52Z"/><path class="e" d="M211.98,252.62h-2.42v-1.45c-.4,.56-.88,.98-1.42,1.26-.55,.28-1.1,.41-1.66,.41-1.13,0-2.1-.46-2.91-1.37-.81-.91-1.21-2.18-1.21-3.82s.39-2.94,1.18-3.81,1.78-1.3,2.98-1.3c1.1,0,2.05,.46,2.86,1.37v-4.9h2.61v13.6Zm-6.96-5.14c0,1.05,.15,1.81,.44,2.28,.42,.68,1.01,1.02,1.76,1.02,.6,0,1.11-.25,1.53-.77,.42-.51,.63-1.27,.63-2.29,0-1.13-.21-1.95-.61-2.45-.41-.5-.93-.75-1.57-.75s-1.14,.25-1.55,.74c-.42,.49-.63,1.23-.63,2.2Z"/><path class="e" d="M213.95,247.56c0-.87,.21-1.7,.64-2.51,.43-.81,1.03-1.43,1.81-1.86,.78-.43,1.66-.64,2.62-.64,1.49,0,2.71,.48,3.66,1.45,.95,.97,1.43,2.19,1.43,3.67s-.48,2.73-1.44,3.71c-.96,.98-2.17,1.47-3.63,1.47-.9,0-1.76-.2-2.58-.61-.82-.41-1.44-1.01-1.87-1.79-.43-.79-.64-1.75-.64-2.88Zm2.67,.14c0,.98,.23,1.72,.7,2.24s1.04,.78,1.72,.78,1.25-.26,1.71-.78,.69-1.27,.69-2.26-.23-1.71-.69-2.23-1.03-.78-1.71-.78-1.25,.26-1.72,.78-.7,1.27-.7,2.25Z"/><path class="e" d="M228.65,252.62h-2.61v-9.85h2.42v1.4c.41-.66,.79-1.1,1.12-1.31,.33-.21,.71-.32,1.13-.32,.59,0,1.17,.16,1.72,.49l-.81,2.27c-.44-.28-.85-.43-1.22-.43s-.67,.1-.93,.3c-.25,.2-.45,.56-.6,1.09-.14,.53-.22,1.63-.22,3.3v3.04Z"/><path class="e" d="M239.26,249.49l2.6,.44c-.33,.95-.86,1.68-1.58,2.17-.72,.5-1.62,.75-2.71,.75-1.71,0-2.98-.56-3.8-1.68-.65-.9-.97-2.03-.97-3.39,0-1.63,.43-2.91,1.28-3.84,.85-.92,1.93-1.39,3.24-1.39,1.47,0,2.62,.48,3.47,1.45,.85,.97,1.25,2.45,1.21,4.45h-6.53c.02,.77,.23,1.38,.63,1.8s.9,.64,1.5,.64c.41,0,.75-.11,1.03-.33,.28-.22,.49-.58,.63-1.08Zm.15-2.63c-.02-.75-.21-1.33-.58-1.72s-.82-.59-1.35-.59c-.57,0-1.04,.21-1.41,.62s-.55,.98-.55,1.69h3.9Z"/><path class="e" d="M243.2,249.81l2.62-.4c.11,.51,.34,.89,.68,1.16,.34,.26,.82,.39,1.43,.39,.67,0,1.18-.12,1.52-.37,.23-.17,.34-.41,.34-.7,0-.2-.06-.36-.19-.49-.13-.12-.42-.24-.87-.34-2.1-.46-3.44-.89-4-1.27-.78-.53-1.17-1.27-1.17-2.22,0-.85,.34-1.57,1.01-2.15,.67-.58,1.72-.87,3.14-.87s2.35,.22,3.01,.66c.66,.44,1.11,1.09,1.35,1.95l-2.46,.46c-.11-.38-.3-.68-.6-.88-.29-.21-.71-.31-1.26-.31-.69,0-1.18,.1-1.48,.29-.2,.14-.3,.31-.3,.53,0,.19,.09,.34,.26,.47,.24,.17,1.05,.42,2.44,.73,1.39,.32,2.36,.7,2.91,1.16,.54,.46,.82,1.11,.82,1.94,0,.9-.38,1.68-1.13,2.33-.75,.65-1.87,.97-3.35,.97-1.34,0-2.4-.27-3.19-.82s-1.29-1.28-1.54-2.22Z"/></g><g><path class="e" d="M226.94,162.63c.01,11.1,0,34.97,0,46.07,0,1.17,.42,1.59,1.6,1.6,2.23,0,4.47,0,6.7,0,1.39,0,1.75-.36,1.75-1.73,0-6.53,0-25.84,0-32.37,0-6.6,0-13.21,0-19.81,0-.62-.08-1.18-.71-1.48-.63-.3-1.12-.03-1.6,.38-2.35,1.97-4.71,3.94-7.07,5.89-.48,.39-.68,.85-.68,1.46Zm3.02-.16c1.47-1.18,2.91-2.4,4.49-3.72v48.98h-4.96c-.01-.24-.03-13.26-.03-13.49,0-10.21,0-20.43-.01-30.64,0-.48,.12-.81,.51-1.12Z"/><path class="e" d="M169.09,182.31c.15-.09,.28-.2,.41-.31,2.78-2.18,17.59-13.29,20.37-15.47,2.32-1.81,4.63-3.63,7.06-5.53,.16,.22,.29,.43,.46,.6,1.71,1.83,3.42,3.66,5.14,5.48,.73,.77,1.26,.81,2.11,.17,.16-.12,.31-.24,.47-.36,6.88-5.39,15.79-12.57,22.67-17.96,.26-.21,.53-.4,.82-.62,.04,.13,.07,.17,.06,.22-.12,1.32-.24,2.64-.37,3.96-.09,.94,.28,1.56,1.03,1.67,.82,.12,1.36-.36,1.46-1.34,.24-2.37,.46-4.74,.67-7.11,.08-.94-.31-1.44-1.26-1.55-1.07-.13-2.15-.21-3.23-.31-1.42-.12-2.84-.26-4.26-.36-.62-.04-1.04,.3-1.21,.87-.16,.54-.02,1.06,.47,1.35,.3,.18,.69,.25,1.04,.29,1.23,.14,2.47,.24,3.92,.38-7.15,5.61-16.16,12.88-23.16,18.37-1.86-1.98-3.67-3.92-5.48-5.85-.96-1.02-1.4-1.06-2.5-.2-4.31,3.37-8.63,6.75-12.94,10.12-1.08,.85-14.2,10.61-15.26,11.48-.55,.45-.62,1.19-.22,1.71,.41,.54,1.09,.65,1.71,.28Z"/><path class="e" d="M221.19,173.76c-.67-.32-1.17,.02-1.66,.43-2.31,1.94-4.63,3.88-6.96,5.79-.5,.41-.72,.87-.72,1.52,.01,4.81,0,22.4,.01,27.21,0,1.18,.41,1.58,1.6,1.58,2.26,0,4.52,0,6.77,0,1.27,0,1.68-.41,1.68-1.67,0-3.44,0-19.65,0-23.08s0-6.82,0-10.23c0-.65-.08-1.23-.74-1.55Zm-1.84,33.98h-4.93c-.01-.27-.04-13.28-.04-13.52,0-3.93,0-7.86-.01-11.79,0-.49,.14-.81,.52-1.12,1.47-1.19,2.91-2.41,4.45-3.69v30.12Z"/><path class="e" d="M206.13,175.04c-.55-.27-1.03-.11-1.52,.21-2.34,1.57-4.69,3.14-7.05,4.7-.59,.39-.84,.89-.84,1.6,.02,4.79,0,22.36,.01,27.15,0,1.17,.43,1.59,1.6,1.6,2.26,0,4.52,0,6.78,0,1.29,0,1.67-.38,1.67-1.66,0-3.22,0-19.21,0-22.43,0-3.27,0-6.53,0-9.8,0-.58-.1-1.08-.67-1.36Zm-1.86,32.68h-5.01v-13.48c0-3.9,0-7.8-.01-11.7,0-.5,.15-.8,.57-1.07,1.46-.93,2.89-1.91,4.45-2.95v29.2Z"/><path class="e" d="M191.69,187.64c-.02-.43-.29-.93-.61-1.22-.41-.37-.96-.24-1.43,.07-2.43,1.62-4.86,3.24-7.29,4.86-.5,.33-.71,.77-.69,1.37,.02,1.1,0,14.99,0,16.09,0,1.04,.44,1.48,1.48,1.48,2.36,.01,4.71,.01,7.07,0,1.06,0,1.49-.46,1.49-1.55,0-1.37,0-15.53,0-16.9,0-1.4,.05-2.8-.03-4.2Zm-2.54,20.11h-4.96c0-.53-.02-13.82,.01-14.32,0-.14,.11-.33,.23-.41,1.54-1.05,3.09-2.08,4.72-3.17v17.9Z"/><path class="e" d="M178.34,196.64c-.02-.43-.29-.93-.61-1.22-.41-.37-.96-.24-1.43,.07-2.43,1.62-4.86,3.24-7.29,4.86-.5,.33-.71,.77-.69,1.37,.02,1.1,0,5.99,0,7.1,0,1.04,.44,1.48,1.48,1.48,2.36,.01,4.71,.01,7.07,0,1.06,0,1.49-.46,1.49-1.55,0-1.37,0-6.53,0-7.91,0-1.4,.05-2.8-.03-4.2Zm-2.54,11.11h-4.96c0-.53-.02-4.82,.01-5.33,0-.14,.11-.33,.23-.41,1.54-1.05,3.09-2.08,4.72-3.17v8.9Z"/><polygon class="e" points="162.67 212.52 162.67 143.7 160.15 143.7 160.15 212.52 160.15 215.03 239.85 215.03 239.85 212.52 162.67 212.52"/></g><path class="e" d="M252.24,278.38h-104.09l-30.47-31.14v-106.07l27.58-27.68h108.24l28.81,29.34v105.68l-30.08,29.87Zm-101.99-4.98h99.94l27.15-26.96v-101.57l-25.93-26.4h-104.08l-24.67,24.76v101.98l27.59,28.19Z"/></g></svg>