<?xml version="1.0" encoding="UTF-8"?><svg xmlns="http://www.w3.org/2000/svg" viewBox="0 0 400 400"><defs><style>.e{fill:#fff;}</style></defs><g id="a"/><g id="b"><path class="e" d="M252.24,278.38h-104.09l-30.47-31.14v-106.07l27.58-27.68h108.24l28.81,29.34v105.68l-30.08,29.87Zm-101.99-4.98h99.94l27.15-26.96v-101.57l-25.93-26.4h-104.08l-24.67,24.76v101.98l27.59,28.19Z"/></g><g id="c"/><g id="d"><g><path class="e" d="M164.45,252.88v-13.6h2.67l5.57,9.08v-9.08h2.55v13.6h-2.76l-5.48-8.87v8.87h-2.55Z"/><path class="e" d="M177.53,247.81c0-.87,.21-1.7,.64-2.51,.43-.81,1.03-1.43,1.81-1.86,.78-.43,1.66-.64,2.62-.64,1.49,0,2.71,.48,3.67,1.45,.95,.97,1.43,2.19,1.43,3.67s-.48,2.73-1.44,3.71c-.96,.98-2.17,1.47-3.63,1.47-.9,0-1.76-.2-2.58-.61-.82-.41-1.44-1.01-1.87-1.79-.43-.79-.64-1.75-.64-2.88Zm2.67,.14c0,.98,.23,1.72,.7,2.24s1.04,.78,1.72,.78,1.25-.26,1.71-.78c.46-.52,.69-1.27,.69-2.26s-.23-1.71-.69-2.23c-.46-.52-1.03-.78-1.71-.78s-1.25,.26-1.72,.78-.7,1.27-.7,2.25Z"/><path class="e" d="M194.25,243.02v2.08h-1.78v3.97c0,.8,.02,1.27,.05,1.41,.03,.13,.11,.24,.23,.33,.12,.09,.27,.13,.44,.13,.24,0,.59-.08,1.05-.25l.22,2.02c-.61,.26-1.29,.39-2.06,.39-.47,0-.89-.08-1.27-.24-.38-.16-.65-.36-.83-.61-.18-.25-.3-.59-.37-1.02-.06-.3-.08-.92-.08-1.84v-4.3h-1.2v-2.08h1.2v-1.96l2.62-1.52v3.48h1.78Z"/><path class="e" d="M196.06,241.69v-2.41h2.61v2.41h-2.61Zm0,11.19v-9.85h2.61v9.85h-2.61Z"/><path class="e" d="M209.93,245.94l-2.57,.46c-.09-.51-.28-.9-.59-1.16-.31-.26-.71-.39-1.19-.39-.65,0-1.17,.22-1.55,.67-.39,.45-.58,1.2-.58,2.25,0,1.17,.2,2,.59,2.48,.39,.48,.92,.72,1.58,.72,.5,0,.9-.14,1.22-.42,.32-.28,.54-.77,.67-1.45l2.56,.44c-.27,1.17-.78,2.06-1.53,2.66-.76,.6-1.77,.9-3.03,.9-1.44,0-2.59-.46-3.45-1.36-.86-.91-1.29-2.17-1.29-3.78s.43-2.89,1.29-3.8,2.02-1.36,3.49-1.36c1.2,0,2.15,.26,2.86,.77,.71,.52,1.22,1.3,1.53,2.36Z"/><path class="e" d="M211.91,241.69v-2.41h2.61v2.41h-2.61Zm0,11.19v-9.85h2.61v9.85h-2.61Z"/><path class="e" d="M219.13,246.03l-2.37-.43c.27-.95,.72-1.66,1.37-2.12,.65-.46,1.61-.69,2.89-.69,1.16,0,2.03,.14,2.6,.41,.57,.28,.97,.62,1.2,1.05,.23,.42,.35,1.2,.35,2.33l-.03,3.04c0,.87,.04,1.5,.12,1.92,.08,.41,.24,.85,.47,1.32h-2.58c-.07-.17-.15-.43-.25-.77-.04-.16-.07-.26-.09-.31-.45,.43-.92,.76-1.43,.97-.51,.22-1.05,.32-1.62,.32-1.02,0-1.81-.28-2.4-.83-.58-.55-.88-1.25-.88-2.09,0-.56,.13-1.05,.4-1.49,.27-.44,.64-.77,1.12-1,.48-.23,1.17-.43,2.07-.61,1.22-.23,2.06-.44,2.53-.64v-.26c0-.5-.12-.86-.37-1.07-.25-.21-.71-.32-1.4-.32-.46,0-.83,.09-1.09,.27s-.47,.5-.63,.96Zm3.49,2.12c-.33,.11-.86,.24-1.59,.4-.72,.15-1.2,.31-1.42,.45-.34,.24-.51,.55-.51,.92s.13,.68,.41,.95c.27,.27,.62,.4,1.04,.4,.47,0,.92-.15,1.34-.46,.32-.24,.52-.52,.62-.86,.07-.22,.1-.65,.1-1.27v-.52Z"/><path class="e" d="M226.83,250.06l2.62-.4c.11,.51,.34,.89,.68,1.16,.34,.26,.82,.39,1.43,.39,.67,0,1.18-.12,1.52-.37,.23-.17,.34-.41,.34-.7,0-.2-.06-.36-.19-.49-.13-.12-.42-.24-.87-.34-2.1-.46-3.44-.89-4-1.27-.78-.53-1.17-1.27-1.17-2.22,0-.85,.34-1.57,1.01-2.15,.67-.58,1.72-.87,3.14-.87s2.35,.22,3.01,.66c.66,.44,1.11,1.09,1.35,1.95l-2.46,.46c-.11-.38-.3-.68-.6-.88-.29-.21-.71-.31-1.26-.31-.69,0-1.18,.1-1.48,.29-.2,.14-.3,.31-.3,.53,0,.19,.09,.34,.26,.47,.24,.17,1.05,.42,2.44,.73,1.39,.32,2.36,.7,2.91,1.16,.54,.46,.82,1.11,.82,1.94,0,.9-.38,1.68-1.13,2.33-.75,.65-1.87,.97-3.35,.97-1.34,0-2.4-.27-3.19-.82s-1.29-1.28-1.54-2.22Z"/></g><g><path class="e" d="M237.3,159.72c-1.69-1.02-3.34-2.1-5.04-3.1-.51-.3-.7-.63-.7-1.22,.02-6.03,.02-12.06,.01-18.09,0-1.39-.41-1.8-1.81-1.8-19.84,0-39.68,0-59.52,0-1.41,0-1.81,.4-1.81,1.8,0,6.06,0,12.11,.01,18.17,0,.54-.16,.83-.62,1.11-1.67,1-3.29,2.08-4.97,3.05-1.63,.95-2.34,2.31-2.34,4.2,.03,15.38,.01,30.75,.01,46.13,0,2.95,1.56,4.49,4.53,4.49,11.65,0,23.29,0,34.94,0,11.7,0,23.4,0,35.11,0,2.74,0,4.36-1.61,4.37-4.32,0-15.49,0-30.97,.01-46.46,0-1.75-.69-3.05-2.19-3.95Zm-66.23-21.29c0-.05,.02-.11,.04-.26h57.85v.87c0,9.59,0,19.19,.01,28.78,0,.6-.17,.93-.69,1.23-1.58,.93-3.11,1.94-4.69,2.88-.4,.23-.91,.39-1.37,.39-6.33,.03-12.66,.02-18.99,.02-.27,0-.56-.03-.82,.03-.66,.15-1.06,.58-1.07,1.27,0,.69,.39,1.13,1.04,1.29,.26,.07,.54,.04,.82,.04,4.77,0,9.54,0,14.31,0h.89c-1.84,1.05-3.25,2.83-5.73,2.68-3.11-.19-6.25-.05-9.37-.05-.19,0-.38,0-.58,0-.84,.04-1.39,.56-1.39,1.31,0,.75,.55,1.3,1.39,1.31,2.14,.02,4.28,0,6.41,0,.26,0,.52,0,1.01,0-.34,.24-.48,.35-.63,.45-2.37,1.47-4.75,2.94-7.12,4.42-1.6,1.01-3.17,1.02-4.78,0-2.31-1.47-4.65-2.89-6.97-4.34-.2-.12-.38-.26-.77-.53,1.81,0,3.39,0,4.96,0,.79,0,1.59,.01,2.38,0,.89-.02,1.47-.56,1.46-1.33-.01-.77-.58-1.29-1.49-1.29-1.81-.01-3.62,0-5.43,0-1.15,0-2.33-.15-3.45,.03-2.78,.46-4.66-1.22-6.96-2.66h1.1c4.77,0,9.54,0,14.31,0,.27,0,.56,.03,.82-.03,.66-.14,1.07-.57,1.09-1.26,.01-.73-.4-1.18-1.11-1.32-.26-.05-.55-.03-.82-.03-6.3,0-12.61,0-18.91-.02-.46,0-.97-.15-1.37-.38-1.65-.97-3.27-1.99-4.88-3.04-.24-.16-.5-.53-.5-.8-.02-9.89-.02-19.79-.02-29.68Zm-7.39,23.86c1.51-1.02,3.08-1.95,4.71-2.97v7.63c-.52-.32-.99-.6-1.46-.89-1.05-.65-2.09-1.3-3.13-1.95-.78-.49-.88-1.3-.11-1.82Zm71.39,49.54c-23.38,0-46.75,0-70.13,0-1.35,0-1.77-.42-1.77-1.76,0-14.14,0-28.29,0-42.43v-.81c2.95,1.83,5.73,3.56,8.52,5.29,8.17,5.07,16.34,10.13,24.5,15.21,2.56,1.6,5.08,1.6,7.64,0,10.7-6.65,21.4-13.29,32.1-19.93,.25-.16,.51-.31,.86-.52,.02,.3,.06,.53,.06,.75,0,14.14,0,28.29,0,42.43,0,1.34-.43,1.76-1.77,1.76Zm1.08-47.67c-1.48,.92-2.96,1.84-4.52,2.81v-7.65c1.61,1,3.16,1.92,4.65,2.92,.85,.57,.76,1.37-.13,1.92Z"/><path class="e" d="M174.84,143.37c.24,.05,.49,.02,.74,.02,16.28,0,32.56,0,48.84,0,.25,0,.5,.02,.74-.02,.71-.13,1.14-.57,1.14-1.29,0-.73-.43-1.17-1.14-1.29-.27-.05-.55-.02-.82-.02-8.11,0-16.23,0-24.34,0s-16.23,0-24.34,0c-.27,0-.55-.03-.82,.02-.71,.13-1.14,.57-1.14,1.29,0,.73,.43,1.16,1.14,1.3Z"/><path class="e" d="M174.84,164.43c.24,.05,.49,.02,.74,.02,16.28,0,32.56,0,48.84,0,.25,0,.5,.02,.74-.02,.71-.13,1.14-.57,1.14-1.3,0-.73-.43-1.17-1.14-1.29-.27-.05-.55-.02-.82-.02-8.11,0-16.23,0-24.34,0s-16.23,0-24.34,0c-.27,0-.55-.03-.82,.02-.71,.13-1.14,.57-1.14,1.29,0,.73,.43,1.16,1.14,1.3Z"/><path class="e" d="M209.19,147.57c-.2,1.49-.39,2.97-.59,4.46-.24-.23-.35-.47-.44-.71-.54-1.43-1.07-2.87-1.61-4.3-.22-.59-.63-.97-1.29-.97-.66,0-1.06,.39-1.28,.97-.09,.23-.16,.46-.25,.69-.55,1.44-1.09,2.89-1.64,4.33l-.17-.02c-.2-1.51-.39-3.02-.59-4.53-.12-.95-.7-1.51-1.46-1.42-.82,.1-1.27,.79-1.14,1.77,.42,3.31,.85,6.63,1.26,9.94,.09,.74,.4,1.27,1.16,1.38,.81,.11,1.25-.37,1.51-1.09,.43-1.18,.88-2.36,1.32-3.54,.4-1.06,.81-2.12,1.28-3.36,.18,.42,.28,.65,.37,.9,.75,1.97,1.5,3.94,2.22,5.91,.27,.74,.68,1.29,1.54,1.18,.8-.11,1.08-.7,1.17-1.46,.39-3.26,.82-6.52,1.23-9.78,.13-1.04-.3-1.75-1.14-1.85-.78-.09-1.33,.47-1.47,1.5Z"/><path class="e" d="M180.21,146.82c-.43-.57-.92-.97-1.67-.71-.74,.25-.91,.85-.91,1.57,.01,3.29,0,6.57,0,9.86,0,1.04,.49,1.64,1.31,1.64,.82,0,1.31-.6,1.31-1.64,0-1.81,0-3.62,0-5.42,0-.19,.04-.39,.08-.72,1.8,2.41,3.52,4.68,5.22,6.96,.42,.57,.9,1,1.65,.76,.78-.25,.96-.87,.95-1.63-.02-3.26,0-6.52,0-9.78,0-1.05-.46-1.65-1.27-1.68-.84-.03-1.35,.59-1.35,1.68,0,1.97,0,3.94,0,6.16-.31-.39-.48-.6-.64-.81-1.56-2.08-3.13-4.16-4.68-6.24Z"/><path class="e" d="M214.61,156.56c-.89,0-1.46,.56-1.45,1.33,.01,.74,.57,1.28,1.41,1.29,1.73,.02,3.45,.03,5.18,0,1.48-.03,2.57-1.13,2.61-2.62,.02-.77,0-1.53,0-2.3,0-1.91-1.05-2.96-2.94-2.96-1.2,0-2.39,0-3.58,0v-2.63c1.73,0,3.4,.01,5.06,0,.89,0,1.46-.57,1.45-1.34-.02-.74-.57-1.27-1.42-1.28-1.73-.02-3.45-.03-5.18,0-1.49,.03-2.56,1.13-2.6,2.62-.02,.77,0,1.53,0,2.3,0,1.9,1.05,2.96,2.93,2.96,1.2,0,2.39,0,3.61,0v2.63c-1.76,0-3.42-.01-5.09,0Z"/><path class="e" d="M195.98,148.65c.84-.02,1.39-.57,1.38-1.32,0-.72-.53-1.28-1.32-1.29-1.75-.03-3.51-.03-5.26,0-.78,.01-1.29,.52-1.3,1.31-.02,3.51-.02,7.01,0,10.52,0,.78,.52,1.3,1.3,1.31,1.75,.03,3.51,.03,5.26,0,.78-.01,1.31-.58,1.32-1.29,0-.77-.56-1.31-1.46-1.32-1.25-.02-2.5,0-3.73,0v-2.63c1.27,0,2.47,0,3.68,0,.94-.01,1.54-.56,1.51-1.35-.02-.77-.6-1.26-1.51-1.27-1.2-.01-2.41,0-3.69,0v-2.63c1.31,0,2.57,.02,3.82,0Z"/><path class="e" d="M197.34,167.08c-.14,0-.27,0-.41,0-6.28,0-12.55,0-18.83,0-.22,0-.44-.02-.66,.02-.71,.15-1.12,.59-1.11,1.32,0,.69,.42,1.11,1.08,1.26,.24,.05,.49,.03,.74,.03,3.1,0,6.19,0,9.29,0,2,0,4,0,6,0,1.29,0,2.58,.02,3.86,0,.83-.02,1.38-.59,1.37-1.33-.01-.71-.55-1.23-1.34-1.29Z"/><path class="e" d="M221.96,167.09c-4.88-.02-9.76-.01-14.64-.01-1.51,0-3.01-.01-4.52,0-.96,.01-1.57,.65-1.46,1.48,.1,.72,.65,1.15,1.55,1.15,3.21,0,6.41,0,9.62,0,.99,0,1.97,0,2.96,0,2.25,0,4.49,0,6.74,0,.68,0,1.27-.26,1.37-.92,.07-.44-.12-1.03-.41-1.37-.23-.26-.79-.33-1.21-.33Z"/></g></g></svg>