<?xml version="1.0" encoding="UTF-8"?><svg xmlns="http://www.w3.org/2000/svg" viewBox="0 0 400 400"><defs><style>.e{fill:#fff;}</style></defs><g id="a"/><g id="b"/><g id="c"/><g id="d"><g><path class="e" d="M171.41,234.68c.67,.48,1.41,.87,2.2,1.15l-1.01,1.94c-.41-.12-.82-.29-1.21-.51-.09-.04-.7-.45-1.83-1.21-.89,.39-1.88,.58-2.96,.58-2.09,0-3.73-.62-4.91-1.85-1.18-1.23-1.78-2.96-1.78-5.19s.59-3.95,1.78-5.18c1.19-1.23,2.8-1.85,4.83-1.85s3.61,.62,4.8,1.85c1.18,1.23,1.77,2.96,1.77,5.18,0,1.18-.16,2.21-.49,3.1-.25,.68-.64,1.34-1.19,1.98Zm-2.21-1.55c.35-.41,.62-.92,.79-1.5,.18-.59,.26-1.26,.26-2.02,0-1.57-.35-2.74-1.04-3.52-.69-.78-1.6-1.16-2.72-1.16s-2.03,.39-2.72,1.17c-.7,.78-1.04,1.95-1.04,3.52s.35,2.78,1.04,3.57c.7,.79,1.58,1.18,2.64,1.18,.4,0,.77-.06,1.12-.19-.56-.37-1.12-.65-1.7-.85l.77-1.57c.9,.31,1.77,.77,2.59,1.39Z"/><path class="e" d="M181.7,236.41v-1.47c-.36,.53-.83,.94-1.42,1.24-.58,.3-1.2,.46-1.85,.46s-1.26-.15-1.78-.44c-.53-.29-.91-.7-1.14-1.22-.24-.53-.35-1.25-.35-2.18v-6.23h2.61v4.53c0,1.39,.05,2.23,.14,2.55,.1,.31,.27,.56,.52,.74s.58,.27,.96,.27c.45,0,.84-.12,1.2-.37s.59-.55,.72-.91c.13-.36,.19-1.25,.19-2.66v-4.16h2.61v9.85h-2.42Z"/><path class="e" d="M186.82,225.22v-2.41h2.61v2.41h-2.61Zm0,11.19v-9.85h2.61v9.85h-2.61Z"/><path class="e" d="M197.81,233.27l2.6,.44c-.33,.95-.86,1.68-1.58,2.17-.72,.5-1.62,.75-2.7,.75-1.71,0-2.98-.56-3.8-1.68-.65-.9-.97-2.03-.97-3.39,0-1.63,.43-2.91,1.28-3.84,.85-.92,1.93-1.39,3.24-1.39,1.47,0,2.62,.48,3.47,1.45s1.25,2.45,1.22,4.45h-6.53c.02,.77,.23,1.38,.63,1.8,.4,.43,.9,.64,1.5,.64,.41,0,.75-.11,1.03-.33s.49-.58,.63-1.08Zm.15-2.63c-.02-.75-.21-1.33-.58-1.72s-.82-.59-1.35-.59c-.57,0-1.04,.21-1.41,.62s-.55,.98-.55,1.69h3.9Zm-3.33-5.29l1.28-2.77h2.92l-2.55,2.77h-1.65Z"/><path class="e" d="M211.63,236.41h-2.61v-5.03c0-1.06-.06-1.75-.17-2.06-.11-.31-.29-.55-.54-.73-.25-.17-.55-.26-.9-.26-.45,0-.86,.12-1.22,.37-.36,.25-.6,.57-.74,.98s-.2,1.16-.2,2.26v4.46h-2.61v-9.85h2.42v1.45c.86-1.11,1.94-1.67,3.25-1.67,.58,0,1.1,.1,1.58,.31,.48,.21,.84,.47,1.08,.79,.24,.32,.41,.69,.51,1.09s.14,.99,.14,1.75v6.12Z"/><path class="e" d="M219.98,233.27l2.6,.44c-.33,.95-.86,1.68-1.58,2.17-.72,.5-1.62,.75-2.7,.75-1.71,0-2.98-.56-3.8-1.68-.65-.9-.97-2.03-.97-3.39,0-1.63,.43-2.91,1.28-3.84,.85-.92,1.93-1.39,3.24-1.39,1.47,0,2.62,.48,3.47,1.45s1.25,2.45,1.22,4.45h-6.53c.02,.77,.23,1.38,.63,1.8,.4,.43,.9,.64,1.5,.64,.41,0,.75-.11,1.03-.33s.49-.58,.63-1.08Zm.15-2.63c-.02-.75-.21-1.33-.58-1.72s-.82-.59-1.35-.59c-.57,0-1.04,.21-1.41,.62s-.55,.98-.55,1.69h3.9Z"/><path class="e" d="M223.92,233.6l2.62-.4c.11,.51,.34,.89,.68,1.16s.82,.39,1.43,.39c.67,0,1.18-.12,1.52-.37,.23-.17,.34-.41,.34-.7,0-.2-.06-.36-.19-.49-.13-.12-.42-.24-.87-.34-2.1-.46-3.44-.89-4-1.27-.78-.53-1.17-1.27-1.17-2.22,0-.85,.34-1.57,1.01-2.15,.67-.58,1.72-.87,3.14-.87s2.35,.22,3.01,.66c.66,.44,1.11,1.09,1.35,1.95l-2.46,.46c-.11-.38-.3-.68-.6-.88-.29-.21-.71-.31-1.26-.31-.69,0-1.18,.1-1.47,.29-.2,.14-.3,.31-.3,.53,0,.19,.09,.34,.26,.47,.23,.17,1.05,.42,2.44,.73,1.39,.32,2.36,.7,2.91,1.16,.54,.46,.82,1.11,.82,1.94,0,.9-.38,1.68-1.13,2.33-.75,.65-1.87,.97-3.35,.97-1.34,0-2.4-.27-3.19-.82s-1.29-1.28-1.54-2.22Z"/><path class="e" d="M169.03,256.6l2.62-.4c.11,.51,.34,.89,.68,1.16,.34,.26,.82,.39,1.43,.39,.67,0,1.18-.12,1.52-.37,.23-.17,.34-.41,.34-.7,0-.2-.06-.36-.19-.49-.13-.12-.42-.24-.87-.34-2.1-.46-3.44-.89-4-1.27-.78-.53-1.17-1.27-1.17-2.22,0-.85,.34-1.57,1.01-2.15s1.72-.87,3.14-.87,2.35,.22,3.01,.66c.66,.44,1.11,1.09,1.35,1.95l-2.46,.46c-.11-.38-.3-.68-.6-.88-.29-.21-.71-.31-1.26-.31-.69,0-1.18,.1-1.48,.29-.2,.14-.3,.31-.3,.53,0,.19,.09,.34,.26,.47,.24,.17,1.05,.42,2.44,.73s2.36,.7,2.91,1.16c.54,.46,.82,1.11,.82,1.94,0,.9-.38,1.68-1.13,2.33-.75,.65-1.87,.97-3.35,.97-1.34,0-2.4-.27-3.19-.82-.78-.54-1.29-1.28-1.54-2.22Z"/><path class="e" d="M179.91,254.34c0-.87,.21-1.7,.64-2.51,.43-.81,1.03-1.43,1.81-1.86,.78-.43,1.66-.64,2.62-.64,1.49,0,2.71,.48,3.67,1.45,.95,.97,1.43,2.19,1.43,3.67s-.48,2.73-1.44,3.71c-.96,.98-2.17,1.47-3.63,1.47-.9,0-1.76-.2-2.58-.61-.82-.41-1.44-1.01-1.87-1.79-.43-.79-.64-1.75-.64-2.88Zm2.67,.14c0,.98,.23,1.72,.7,2.24s1.04,.78,1.72,.78,1.25-.26,1.71-.78c.46-.52,.69-1.27,.69-2.26s-.23-1.71-.69-2.23c-.46-.52-1.03-.78-1.71-.78s-1.25,.26-1.72,.78-.7,1.27-.7,2.25Z"/><path class="e" d="M191.92,249.55h2.4v1.34c.86-1.04,1.88-1.57,3.07-1.57,.63,0,1.18,.13,1.64,.39s.84,.65,1.14,1.18c.43-.53,.9-.92,1.4-1.18s1.04-.39,1.6-.39c.72,0,1.34,.15,1.84,.44,.5,.29,.88,.73,1.12,1.29,.18,.42,.27,1.1,.27,2.04v6.3h-2.61v-5.63c0-.98-.09-1.61-.27-1.89-.24-.37-.61-.56-1.11-.56-.37,0-.71,.11-1.03,.33-.32,.22-.55,.55-.7,.98s-.21,1.11-.21,2.04v4.73h-2.61v-5.4c0-.96-.05-1.58-.14-1.86s-.24-.49-.43-.62c-.2-.14-.46-.2-.79-.2-.4,0-.76,.11-1.09,.32s-.55,.53-.69,.94c-.14,.41-.21,1.08-.21,2.03v4.79h-2.61v-9.85Z"/><path class="e" d="M208.41,254.34c0-.87,.21-1.7,.64-2.51,.43-.81,1.03-1.43,1.81-1.86,.78-.43,1.66-.64,2.62-.64,1.49,0,2.71,.48,3.67,1.45,.95,.97,1.43,2.19,1.43,3.67s-.48,2.73-1.44,3.71c-.96,.98-2.17,1.47-3.63,1.47-.9,0-1.76-.2-2.58-.61-.82-.41-1.44-1.01-1.87-1.79-.43-.79-.64-1.75-.64-2.88Zm2.67,.14c0,.98,.23,1.72,.7,2.24s1.04,.78,1.72,.78,1.25-.26,1.71-.78c.46-.52,.69-1.27,.69-2.26s-.23-1.71-.69-2.23c-.46-.52-1.03-.78-1.71-.78s-1.25,.26-1.72,.78-.7,1.27-.7,2.25Z"/><path class="e" d="M219.7,256.6l2.62-.4c.11,.51,.34,.89,.68,1.16,.34,.26,.82,.39,1.43,.39,.67,0,1.18-.12,1.52-.37,.23-.17,.34-.41,.34-.7,0-.2-.06-.36-.19-.49-.13-.12-.42-.24-.87-.34-2.1-.46-3.44-.89-4-1.27-.78-.53-1.17-1.27-1.17-2.22,0-.85,.34-1.57,1.01-2.15s1.72-.87,3.14-.87,2.35,.22,3.01,.66c.66,.44,1.11,1.09,1.35,1.95l-2.46,.46c-.11-.38-.3-.68-.6-.88-.29-.21-.71-.31-1.26-.31-.69,0-1.18,.1-1.48,.29-.2,.14-.3,.31-.3,.53,0,.19,.09,.34,.26,.47,.24,.17,1.05,.42,2.44,.73s2.36,.7,2.91,1.16c.54,.46,.82,1.11,.82,1.94,0,.9-.38,1.68-1.13,2.33-.75,.65-1.87,.97-3.35,.97-1.34,0-2.4-.27-3.19-.82-.78-.54-1.29-1.28-1.54-2.22Z"/></g><g><path class="e" d="M215.67,207.03h-31.6c-3.9,0-7.08-3.32-7.08-7.39v-12.28c0-8.04,5.14-15.23,12.5-17.48l.76-.23,.52,.6c2.34,2.72,5.66,4.28,9.11,4.28s6.91-1.62,9.25-4.45l.5-.6,.75,.2c7.29,1.93,12.38,8.78,12.38,16.66v13.3c0,4.08-3.18,7.39-7.08,7.39Zm-26.2-34.59c-5.96,2.18-10.06,8.2-10.06,14.92v12.28c0,2.74,2.09,4.96,4.65,4.96h31.6c2.56,0,4.65-2.23,4.65-4.96v-13.3c0-6.52-4.02-12.21-9.86-14.11-2.78,3.01-6.59,4.72-10.59,4.72s-7.63-1.64-10.39-4.51Z"/><g><path class="e" d="M242.12,150.32c0-6.53-5.31-11.84-11.84-11.84s-11.84,5.31-11.84,11.84,5.31,11.84,11.84,11.84,11.84-5.31,11.84-11.84Zm-21.25,0c0-5.19,4.22-9.41,9.41-9.41s9.41,4.22,9.41,9.41-4.22,9.41-9.41,9.41-9.41-4.22-9.41-9.41Z"/><path class="e" d="M241.78,158.93l-.59,2.35c6.79,1.7,9.56,5.29,9.56,12.37v14.38c0,4.36-1.18,5.24-3.1,5.24h-21.19v2.43h21.19c5.52,0,5.52-5.77,5.52-7.66v-14.38c0-8.21-3.52-12.75-11.4-14.73Z"/><path class="e" d="M214.18,161.25l1.28,2.06c1.29-.8,2.68-1.42,4.13-1.84l-.68-2.33c-1.67,.48-3.26,1.2-4.73,2.12Z"/></g><g><path class="e" d="M169.72,162.16c6.53,0,11.84-5.31,11.84-11.84,0-6.53-5.31-11.84-11.84-11.84-6.53,0-11.84,5.31-11.84,11.84,0,6.53,5.31,11.84,11.84,11.84Zm0-2.43c-5.19,0-9.41-4.22-9.41-9.41s4.22-9.41,9.41-9.41,9.41,4.22,9.41,9.41-4.22,9.41-9.41,9.41Z"/><path class="e" d="M158.22,158.93l.59,2.35c-6.79,1.7-9.56,5.29-9.56,12.37v14.38c0,4.36,1.18,5.24,3.1,5.24h21.19v2.43h-21.19c-5.52,0-5.52-5.77-5.52-7.66v-14.38c0-8.21,3.52-12.75,11.4-14.73Z"/><path class="e" d="M185.82,161.25l-1.28,2.06c-1.29-.8-2.68-1.42-4.13-1.84l.68-2.33c1.67,.48,3.26,1.2,4.73,2.12Z"/></g><path class="e" d="M201.5,156.13h-2.92c0-.55-.03-5.04-.03-5.16,0-1.23,.16-2.25,.47-3.04,.31-.8,.94-1.69,1.88-2.69,.94-1,1.5-1.65,1.68-1.96,.28-.49,.42-1.02,.42-1.61,0-.82-.25-1.52-.75-2.1-.5-.58-1.17-.87-2.02-.87s-1.5,.3-2.05,.91c-.55,.61-.93,1.53-1.13,2.78l-2.95-.48c.08-1.78,.67-3.29,1.74-4.54,1.08-1.24,2.49-1.87,4.25-1.87,1.84,0,3.31,.63,4.4,1.89,1.09,1.26,1.63,2.72,1.63,4.4,0,.93-.2,1.8-.6,2.63-.4,.83-1.26,1.95-2.57,3.37-.68,.74-1.1,1.33-1.26,1.78s-.22,5.41-.2,6.57Z"/><path class="e" d="M202.41,149.49c-.06,.11-.11,.21-.14,.28-.05,.2-.09,1.09-.12,2.16,4.11,1.01,7.16,4.71,7.16,9.13,0,5.19-4.22,9.41-9.41,9.41s-9.41-4.22-9.41-9.41c0-4.52,3.2-8.3,7.45-9.2,0-.51,0-.86,0-.89,0-.57,.04-1.09,.1-1.58-5.64,.9-9.98,5.78-9.98,11.68,0,6.53,5.31,11.84,11.84,11.84s11.84-5.31,11.84-11.84c0-5.67-4.01-10.42-9.34-11.57Z"/><rect class="e" x="198.58" y="160.08" width="2.94" height="2.82"/><rect class="e" x="186.4" y="199.27" width="2.16" height="6.87"/><rect class="e" x="212.87" y="199.27" width="2.16" height="6.87"/><rect class="e" x="198.83" y="197.68" width="2.6" height="2.85"/><rect class="e" x="198.83" y="190.85" width="2.6" height="4.04"/><polygon class="e" points="209.57 172 208.28 177.73 204.03 181 204.03 176.06 201.43 176.06 201.43 183 199.89 184.18 198.58 183.17 198.58 176.06 195.98 176.06 195.98 181.17 191.5 177.73 190.21 172 187.67 172.57 188.67 176.96 189.16 179.21 192.39 181.68 199.8 187.38 199.86 187.46 199.89 187.45 199.91 187.46 199.98 187.38 207.38 181.68 210.61 179.21 211.11 176.96 212.1 172.57 209.57 172"/></g><path class="e" d="M252.24,278.38h-104.09l-30.47-31.14v-106.07l27.58-27.68h108.24l28.81,29.34v105.68l-30.08,29.87Zm-101.99-4.98h99.94l27.15-26.96v-101.57l-25.93-26.4h-104.08l-24.67,24.76v101.98l27.59,28.19Z"/></g></svg>