<?xml version="1.0" encoding="UTF-8"?><svg xmlns="http://www.w3.org/2000/svg" viewBox="0 0 400 400"><g id="a"/><g id="b"><path d="M252.25,278.38h-104.09l-30.47-31.14v-106.07l27.58-27.68h108.24l28.81,29.34v105.68l-30.08,29.87Zm-101.99-4.98h99.94l27.15-26.96v-101.57l-25.93-26.4h-104.08l-24.67,24.76v101.98l27.59,28.19Z"/><g><path d="M176.49,252.22v-13.6h2.75v13.6h-2.75Z"/><path d="M190.8,252.22h-2.61v-5.03c0-1.06-.06-1.75-.17-2.06-.11-.31-.29-.55-.54-.73-.25-.17-.55-.26-.9-.26-.45,0-.86,.12-1.21,.37-.36,.25-.6,.57-.74,.98-.13,.41-.2,1.16-.2,2.26v4.46h-2.61v-9.85h2.42v1.45c.86-1.11,1.94-1.67,3.25-1.67,.58,0,1.1,.1,1.58,.31,.48,.21,.84,.47,1.08,.79,.24,.32,.41,.69,.51,1.09,.1,.41,.14,.99,.14,1.75v6.12Z"/><path d="M193.44,241.04v-2.41h2.61v2.41h-2.61Zm0,11.19v-9.85h2.61v9.85h-2.61Z"/><path d="M207.31,245.28l-2.57,.46c-.09-.51-.28-.9-.59-1.16-.31-.26-.7-.39-1.19-.39-.65,0-1.17,.22-1.55,.67-.39,.45-.58,1.2-.58,2.25,0,1.17,.2,2,.59,2.48,.39,.48,.92,.72,1.58,.72,.5,0,.9-.14,1.22-.42,.32-.28,.54-.77,.67-1.45l2.56,.44c-.27,1.17-.78,2.06-1.53,2.66-.75,.6-1.77,.9-3.03,.9-1.44,0-2.59-.46-3.45-1.36-.86-.91-1.28-2.17-1.28-3.78s.43-2.89,1.29-3.8,2.02-1.36,3.49-1.36c1.2,0,2.15,.26,2.86,.77,.71,.52,1.22,1.3,1.53,2.36Z"/><path d="M209.29,241.04v-2.41h2.61v2.41h-2.61Zm0,11.19v-9.85h2.61v9.85h-2.61Z"/><path d="M213.96,247.16c0-.87,.21-1.7,.64-2.51,.43-.81,1.03-1.43,1.81-1.86,.78-.43,1.66-.64,2.62-.64,1.49,0,2.71,.48,3.66,1.45s1.43,2.19,1.43,3.67-.48,2.73-1.44,3.71c-.96,.98-2.17,1.47-3.63,1.47-.9,0-1.76-.2-2.58-.61s-1.44-1.01-1.87-1.79c-.43-.79-.64-1.75-.64-2.88Zm2.67,.14c0,.98,.23,1.72,.7,2.24s1.04,.78,1.72,.78,1.25-.26,1.71-.78,.69-1.27,.69-2.26-.23-1.71-.69-2.23-1.03-.78-1.71-.78-1.25,.26-1.72,.78-.7,1.27-.7,2.25Z"/></g></g><g id="c"/><g id="d"><path d="M190.81,145.94c-.18-1.11-.42-2.05-.47-2.99-.07-1.48-.04-2.97-.01-4.45,.03-1.85,1.17-2.99,3.02-2.99,4.43-.01,8.85,0,13.28,0,1.85,0,3.01,1.14,3.04,2.99,.02,1.69,.06,3.39-.02,5.08-.03,.74-.33,1.47-.54,2.31,1.69,1.14,3.51,2.41,5.38,3.62,2.37,1.54,3.49,3.7,3.49,6.51,0,17.22,0,34.45,0,51.67,0,4.64-3.01,7.65-7.63,7.65-6.89,0-13.78,0-20.67,0-4.62,0-7.62-3.02-7.63-7.65,0-17.25,0-34.51,0-51.76,0-2.74,1.11-4.85,3.41-6.36,1.89-1.23,3.74-2.52,5.36-3.61Zm24.3,35.97c0-8.64,0-17.28,0-25.92,0-1.78-.69-3.12-2.19-4.11-2.43-1.59-4.82-3.25-7.25-4.85-.37-.24-.86-.41-1.3-.42-2.91-.04-5.82-.03-8.73,0-.41,0-.88,.15-1.23,.37-2.46,1.61-4.87,3.29-7.33,4.89-1.51,.98-2.2,2.31-2.2,4.1,.01,17.25,0,34.5,0,51.76,0,3.01,1.75,4.74,4.77,4.74,6.74,0,13.49-.09,20.23,.04,3.31,.07,5.31-1.91,5.26-5.31-.11-8.43-.04-16.87-.04-25.3Zm-8.34-43.49h-13.53v5.28h13.53v-5.28Z"/></g></svg>