<?xml version="1.0" encoding="UTF-8"?><svg xmlns="http://www.w3.org/2000/svg" viewBox="0 0 400 400"><g id="a"/><g id="b"><path d="M252.24,278.38h-104.09l-30.47-31.14v-106.07l27.58-27.68h108.24l28.81,29.34v105.68l-30.08,29.87Zm-101.99-4.98h99.94l27.15-26.96v-101.57l-25.93-26.4h-104.08l-24.67,24.76v101.98l27.59,28.19Z"/></g><g id="c"><g><path d="M168.92,247.62l2.66,.84c-.41,1.48-1.09,2.59-2.04,3.31-.95,.72-2.15,1.08-3.61,1.08-1.81,0-3.29-.62-4.45-1.85-1.16-1.23-1.74-2.92-1.74-5.06,0-2.26,.58-4.02,1.75-5.27,1.17-1.25,2.71-1.88,4.61-1.88,1.66,0,3.02,.49,4.05,1.47,.62,.58,1.08,1.42,1.39,2.5l-2.72,.65c-.16-.71-.5-1.26-1.01-1.67-.51-.41-1.13-.61-1.86-.61-1.01,0-1.83,.36-2.45,1.08-.63,.72-.94,1.9-.94,3.52,0,1.72,.31,2.94,.93,3.67,.62,.73,1.42,1.09,2.41,1.09,.73,0,1.36-.23,1.88-.7,.53-.46,.9-1.19,1.13-2.19Z"/><path d="M173.32,247.56c0-.87,.21-1.7,.64-2.51,.43-.81,1.03-1.43,1.81-1.86,.78-.43,1.66-.64,2.62-.64,1.49,0,2.71,.48,3.66,1.45s1.43,2.19,1.43,3.67-.48,2.73-1.44,3.71c-.96,.98-2.17,1.47-3.63,1.47-.9,0-1.76-.2-2.58-.61s-1.44-1.01-1.87-1.79c-.43-.79-.64-1.75-.64-2.88Zm2.67,.14c0,.98,.23,1.72,.7,2.24s1.04,.78,1.72,.78,1.25-.26,1.71-.78,.69-1.27,.69-2.26-.23-1.71-.69-2.23-1.03-.78-1.71-.78-1.25,.26-1.72,.78-.7,1.27-.7,2.25Z"/><path d="M194.49,252.62h-2.61v-5.03c0-1.06-.06-1.75-.17-2.06-.11-.31-.29-.55-.54-.73-.25-.17-.55-.26-.9-.26-.45,0-.86,.12-1.22,.37-.36,.25-.6,.57-.74,.98s-.2,1.16-.2,2.26v4.46h-2.61v-9.85h2.42v1.45c.86-1.11,1.94-1.67,3.25-1.67,.58,0,1.1,.1,1.58,.31,.48,.21,.84,.47,1.08,.79,.24,.32,.41,.69,.51,1.09s.14,.99,.14,1.75v6.12Z"/><path d="M201.65,242.77v2.08h-1.78v3.97c0,.8,.02,1.27,.05,1.41,.03,.13,.11,.24,.23,.33,.12,.09,.27,.13,.44,.13,.24,0,.59-.08,1.05-.25l.22,2.02c-.61,.26-1.29,.39-2.06,.39-.47,0-.89-.08-1.27-.24-.38-.16-.65-.36-.83-.61-.18-.25-.3-.59-.37-1.02-.06-.3-.08-.92-.08-1.84v-4.3h-1.2v-2.08h1.2v-1.96l2.62-1.52v3.48h1.78Z"/><path d="M205.41,245.78l-2.37-.43c.27-.95,.72-1.66,1.37-2.12s1.61-.69,2.89-.69c1.16,0,2.03,.14,2.6,.41s.97,.62,1.2,1.05c.23,.42,.35,1.2,.35,2.33l-.03,3.04c0,.87,.04,1.5,.12,1.92,.08,.41,.24,.85,.47,1.32h-2.58c-.07-.17-.15-.43-.25-.77-.04-.16-.07-.26-.09-.31-.45,.43-.92,.76-1.43,.97-.51,.22-1.05,.32-1.62,.32-1.01,0-1.81-.28-2.4-.83-.58-.55-.88-1.25-.88-2.09,0-.56,.13-1.05,.4-1.49,.27-.44,.64-.77,1.12-1,.48-.23,1.17-.43,2.07-.61,1.22-.23,2.06-.44,2.53-.64v-.26c0-.5-.12-.86-.37-1.07-.25-.21-.71-.32-1.4-.32-.46,0-.83,.09-1.08,.27s-.47,.5-.63,.96Zm3.49,2.12c-.33,.11-.86,.24-1.59,.4-.72,.15-1.2,.31-1.42,.45-.34,.24-.51,.55-.51,.92s.14,.68,.41,.95c.27,.27,.62,.4,1.04,.4,.47,0,.92-.15,1.35-.46,.32-.24,.52-.52,.62-.86,.07-.22,.1-.65,.1-1.27v-.52Z"/><path d="M222.62,245.69l-2.57,.46c-.09-.51-.28-.9-.59-1.16-.31-.26-.7-.39-1.19-.39-.65,0-1.17,.22-1.55,.67-.39,.45-.58,1.2-.58,2.25,0,1.17,.2,2,.59,2.48s.92,.72,1.58,.72c.49,0,.9-.14,1.21-.42,.32-.28,.54-.77,.67-1.45l2.56,.44c-.27,1.17-.78,2.06-1.53,2.66-.75,.6-1.77,.9-3.03,.9-1.44,0-2.59-.46-3.45-1.36-.86-.91-1.29-2.17-1.29-3.78s.43-2.89,1.29-3.8c.86-.91,2.02-1.36,3.49-1.36,1.2,0,2.15,.26,2.86,.77,.71,.52,1.22,1.3,1.53,2.36Z"/><path d="M229.11,242.77v2.08h-1.78v3.97c0,.8,.02,1.27,.05,1.41,.03,.13,.11,.24,.23,.33,.12,.09,.27,.13,.44,.13,.24,0,.59-.08,1.05-.25l.22,2.02c-.61,.26-1.29,.39-2.06,.39-.47,0-.89-.08-1.27-.24-.38-.16-.65-.36-.83-.61-.18-.25-.3-.59-.37-1.02-.06-.3-.08-.92-.08-1.84v-4.3h-1.2v-2.08h1.2v-1.96l2.62-1.52v3.48h1.78Z"/><path d="M230.32,247.56c0-.87,.21-1.7,.64-2.51,.43-.81,1.03-1.43,1.81-1.86,.78-.43,1.66-.64,2.62-.64,1.49,0,2.71,.48,3.66,1.45s1.43,2.19,1.43,3.67-.48,2.73-1.44,3.71c-.96,.98-2.17,1.47-3.63,1.47-.9,0-1.76-.2-2.58-.61s-1.44-1.01-1.87-1.79c-.43-.79-.64-1.75-.64-2.88Zm2.67,.14c0,.98,.23,1.72,.7,2.24s1.04,.78,1.72,.78,1.25-.26,1.71-.78,.69-1.27,.69-2.26-.23-1.71-.69-2.23-1.03-.78-1.71-.78-1.25,.26-1.72,.78-.7,1.27-.7,2.25Z"/></g><g><path d="M235.13,135.7c-9.36,0-18.72,0-28.09,0-2.81,0-4.4,1.59-4.4,4.38,0,6.43,0,12.85,0,19.28,0,3.95,0,7.91,0,11.86,0,2.05,1.38,3.68,3.35,3.98,.51,.08,1.04,.05,1.56,.05,1.86,0,3.71,0,5.6,0v16.13l-.14,.03c-.43-.91-.89-1.82-1.3-2.74-1.18-2.66-2.79-3.42-5.6-2.65-2.16,.6-2.87,1.92-2.14,4.03,1.5,4.36,3.04,8.7,4.47,13.07,.58,1.78,1.3,3.44,2.7,4.71,1.62,1.47,2.29,3.22,2.05,5.4-.12,1.07,.46,1.57,1.53,1.57,5.99,0,11.97,0,17.96,0,1.08,0,1.69-.5,1.55-1.55-.32-2.46,.46-4.5,2.02-6.33,.14-.17,.28-.35,.36-.55,.12-.3,.27-.62,.27-.93,.01-5.71,.02-11.42,0-17.14,0-1.74-1.22-3.28-2.92-3.63-.78-.16-1.62-.03-2.43-.03-1.4-2.49-2.34-2.96-5.29-2.62-.97-2.25-2.67-3.14-5.1-2.66v-4.11c4.68,0,9.29,0,13.9,0,2.92,0,4.49-1.55,4.49-4.46,0-10.22,0-20.43,0-30.65,0-2.87-1.57-4.45-4.41-4.45Zm-12.71,46.15c.81,0,1.31,.62,1.31,1.65,0,2.72,0,5.44,0,8.16,0,.22,0,.44,0,.66,.04,.84,.58,1.39,1.33,1.38,.74,0,1.29-.56,1.3-1.41,.02-2.09,0-4.17,.01-6.26,0-.97,.53-1.56,1.33-1.55,.79,0,1.29,.61,1.31,1.57,0,.16,0,.33,0,.49,0,1.76,0,3.51,0,5.27,0,.19,0,.39,0,.58,.06,.78,.61,1.31,1.33,1.3,.71,0,1.27-.54,1.29-1.33,.03-1.24,0-2.47,.01-3.71,0-.96,.53-1.55,1.33-1.54,.79,.01,1.3,.61,1.3,1.58,0,5.33,0,10.65,0,15.98,0,.31-.17,.61-.27,.91-.03,.08-.09,.14-.13,.21-1.25,1.91-2.98,3.64-2.07,6.31h-16.03c0-.68,.08-1.37-.02-2.03-.09-.56-.25-1.24-.63-1.62-2.58-2.55-4.15-5.62-5.16-9.09-.96-3.29-2.2-6.49-3.31-9.73-.1-.28-.17-.57-.28-.94,.39-.11,.67-.2,.96-.27,.96-.22,1.42,0,1.84,.9,1.29,2.76,2.58,5.51,3.88,8.27,.51,1.09,1.01,1.48,1.71,1.35,.78-.15,1.09-.7,1.09-1.94,0-8.27,0-16.53,0-24.8,0-.19,0-.38,0-.58,.02-.99,.55-1.65,1.33-1.66,.8,0,1.3,.62,1.3,1.66,0,6.67,0,13.35,0,20.02,0,.25-.01,.5,0,.74,.06,.78,.6,1.31,1.32,1.3,.72,0,1.25-.54,1.3-1.32,.03-.41,0-.82,0-1.24,0-2.55,0-5.11,0-7.66,0-1.03,.5-1.64,1.32-1.63Zm-7.06-31.07c-.24,.84-.66,1.83-.79,2.87-.33,2.75,.9,4.87,3.1,6.4,2.11,1.46,4.4,1.6,6.7,.45,.56-.28,.85-.21,1.25,.21,1.31,1.36,2.67,2.69,4.05,4.07-2.82,2.44-7.54,2.5-10.8,.19-.27-.19-.54-.39-.77-.62-2.24-2.23-4.53-4.4-6.69-6.71-2.94-3.15-3.13-8.25-.63-11.43,1.51,1.51,3.03,3.04,4.57,4.57Zm-2.52-6.73c.24-.3,.48-.59,.68-.83,1.59,1.58,3.12,3.09,4.71,4.66l-.78,.77c-1.57-1.56-3.09-3.08-4.6-4.59Zm14.23,14.21l.81-.69c1.52,1.53,3.04,3.05,4.57,4.59-.25,.24-.52,.51-.73,.73-1.51-1.51-3.04-3.03-4.64-4.63Zm8,14.36c-4.37,0-8.73,0-13.1,0h-.9c.12-1.58-.03-3.02-1.18-4.12,4.01,1.57,8.71,.85,12.12-2.17,1.13-1,2.17-2.1,3.23-3.17,.71-.72,.69-1.42-.04-2.15-2.05-2.06-4.11-4.12-6.17-6.17-.79-.79-1.45-.77-2.27,.03-.84,.83-1.66,1.68-2.51,2.5-1.77,1.7-4.11,1.64-5.85-.13-1.7-1.72-1.72-4.06-.04-5.8,.84-.87,1.71-1.7,2.56-2.57,.73-.75,.73-1.41,0-2.15-2.07-2.09-4.14-4.16-6.23-6.23-.75-.74-1.41-.74-2.15-.02-1,.98-2.01,1.95-2.96,2.98-2.11,2.27-3.14,4.98-3.17,8.07,.04,3.13,1.08,5.87,3.24,8.13,2.09,2.18,4.22,4.32,6.4,6.4,.53,.51,1.1,.95,1.69,1.33-.21-.03-.42-.05-.64-.05-1.32,.03-2.36,.62-3.16,1.66-.8,1.05-.81,2.29-.78,3.6-2.24,0-4.36,.01-6.47,0-.97,0-1.43-.54-1.43-1.6,0-4.89,0-9.78,0-14.66,0-5.38,0-10.76,0-16.15,0-1.46,.39-1.86,1.85-1.86,9.31,0,18.61,0,27.92,0,1.46,0,1.86,.39,1.86,1.84,0,10.19,0,20.38,0,30.56,0,1.47-.39,1.87-1.84,1.87Z"/><path d="M164.87,175.25c9.36,0,18.72,0,28.09,0,2.81,0,4.41-1.59,4.41-4.37,0-10.27,0-20.54,0-30.81,0-2.79-1.6-4.37-4.41-4.37-9.36,0-18.72,0-28.09,0-2.84,0-4.41,1.59-4.41,4.45,0,5.08,0,10.16,0,15.24s0,10.27,0,15.41c0,2.86,1.57,4.45,4.41,4.45Zm-1.77-35.1c0-1.4,.41-1.81,1.81-1.81,9.34,0,18.67,0,28.01,0,1.4,0,1.81,.41,1.81,1.81,0,5.11,0,10.22,0,15.33s0,10.22,0,15.33c0,1.4-.41,1.81-1.81,1.81-9.34,0-18.67,0-28.01,0-1.4,0-1.81-.41-1.81-1.81,0-10.22,0-20.43,0-30.65Z"/><path d="M192.96,177.89c-9.36,0-18.72,0-28.09,0-2.84,0-4.41,1.59-4.41,4.45,0,9.34,0,18.67,0,28.01,0,2.86,1.57,4.45,4.41,4.45,9.36,0,18.72,0,28.09,0,2.84,0,4.41-1.58,4.41-4.45,0-4.67,0-9.34,0-14s0-9.34,0-14c0-2.87-1.57-4.45-4.41-4.45Zm-.03,34.28c-9.34,0-18.67,0-28.01,0-1.41,0-1.82-.41-1.82-1.8,0-9.34,0-18.68,0-28.02,0-1.41,.41-1.82,1.8-1.82,4.7,0,9.39,0,14.09,0s9.28,0,13.92,0c1.41,0,1.82,.41,1.82,1.8,0,9.34,0,18.68,0,28.02,0,1.41-.41,1.82-1.8,1.82Z"/><path d="M177.22,164.52c2.22,.27,4.49,.15,6.74,.18,.96,.01,1.55-.54,1.54-1.33-.01-.8-.6-1.29-1.58-1.29-1.76,0-3.52,.07-5.27-.02-3.24-.17-5.65-1.75-6.95-4.72-1.31-2.98-.88-5.85,1.24-8.3,2.12-2.46,4.87-3.3,8.03-2.48,3.6,.94,6.35,4.26,5.82,9.13-.08,.71-.59,1.13-1.32,1.11-.73-.02-1.18-.45-1.27-1.17-.07-.57,0-1.15-.03-1.73-.11-2.78-2.34-4.96-5.18-5.08-2.6-.11-5.03,1.92-5.37,4.49-.38,2.85,1.34,5.38,4.06,6,1.8,.41,3.35-.1,4.78-1.23,.16,.13,.3,.26,.45,.38,1.17,.97,2.49,1.27,3.92,.75,1.46-.53,2.32-1.62,2.57-3.15,.09-.56,.05-1.15,.05-1.73-.03-6.68-5.67-11.53-12.26-10.55-5,.75-8.82,5.23-8.83,10.36,0,5.18,3.8,9.77,8.85,10.4Zm1.69-7.73c-1.44,0-2.62-1.18-2.63-2.61-.01-1.47,1.21-2.68,2.67-2.65,1.44,.02,2.6,1.21,2.59,2.65,0,1.43-1.21,2.62-2.63,2.61Z"/><path d="M190.36,187.12c-7.63,0-15.27,0-22.9,0-1.29,0-1.73,.43-1.73,1.73,0,5,0,10,0,15,0,1.29,.44,1.73,1.73,1.73,3.82,0,7.63,0,11.45,0s7.63,0,11.45,0c1.29,0,1.73-.44,1.73-1.73,0-5,0-10,0-15,0-1.29-.44-1.73-1.73-1.73Zm-3.11,2.68c-2.84,2.52-5.56,4.94-8.33,7.4-2.78-2.47-5.5-4.88-8.34-7.4h16.67Zm-18.83,1.61c1.9,1.69,3.7,3.28,5.57,4.94-1.86,1.64-3.66,3.24-5.57,4.93v-9.87Zm2.18,11.47c1.85-1.64,3.58-3.17,5.34-4.73,.95,.64,1.62,1.67,2.92,1.69,1.32,.02,2.05-.92,3.02-1.71,1.77,1.57,3.5,3.1,5.35,4.75h-16.64Zm18.83-1.59c-1.9-1.68-3.69-3.26-5.57-4.94,1.84-1.64,3.64-3.25,5.57-4.97v9.91Z"/></g></g><g id="d"/></svg>