<?xml version="1.0" encoding="UTF-8"?><svg xmlns="http://www.w3.org/2000/svg" viewBox="0 0 400 400"><g id="a"/><g id="b"><g><path d="M150.96,247.87l2.66,.84c-.41,1.48-1.09,2.59-2.04,3.31s-2.15,1.08-3.61,1.08c-1.81,0-3.29-.62-4.45-1.85-1.16-1.23-1.74-2.92-1.74-5.06,0-2.26,.58-4.02,1.75-5.27,1.17-1.25,2.71-1.88,4.61-1.88,1.66,0,3.02,.49,4.05,1.47,.62,.58,1.08,1.42,1.39,2.5l-2.72,.65c-.16-.71-.5-1.26-1.01-1.67-.51-.41-1.13-.61-1.86-.61-1.01,0-1.83,.36-2.45,1.08-.63,.72-.94,1.9-.94,3.52,0,1.72,.31,2.94,.93,3.67s1.42,1.09,2.41,1.09c.73,0,1.36-.23,1.88-.7,.53-.46,.9-1.19,1.13-2.19Z"/><path d="M157.9,246.03l-2.37-.43c.27-.95,.72-1.66,1.37-2.12,.65-.46,1.61-.69,2.89-.69,1.16,0,2.03,.14,2.6,.41,.57,.28,.97,.62,1.2,1.05,.23,.42,.35,1.2,.35,2.33l-.03,3.04c0,.87,.04,1.5,.12,1.92,.08,.41,.24,.85,.47,1.32h-2.58c-.07-.17-.15-.43-.25-.77-.04-.16-.07-.26-.09-.31-.45,.43-.92,.76-1.43,.97-.51,.22-1.05,.32-1.62,.32-1.02,0-1.81-.28-2.4-.83-.58-.55-.88-1.25-.88-2.09,0-.56,.13-1.05,.4-1.49,.27-.44,.64-.77,1.12-1,.48-.23,1.17-.43,2.07-.61,1.22-.23,2.06-.44,2.53-.64v-.26c0-.5-.12-.86-.37-1.07-.25-.21-.71-.32-1.4-.32-.46,0-.83,.09-1.09,.27s-.47,.5-.63,.96Zm3.49,2.12c-.33,.11-.86,.24-1.59,.4-.72,.15-1.2,.31-1.42,.45-.34,.24-.51,.55-.51,.92s.13,.68,.41,.95c.27,.27,.62,.4,1.04,.4,.47,0,.92-.15,1.34-.46,.32-.24,.52-.52,.62-.86,.07-.22,.1-.65,.1-1.27v-.52Z"/><path d="M166.45,243.02h2.43v1.45c.32-.5,.74-.9,1.28-1.21,.54-.31,1.13-.46,1.79-.46,1.14,0,2.12,.45,2.91,1.34,.8,.9,1.2,2.15,1.2,3.75s-.4,2.92-1.21,3.84c-.8,.91-1.78,1.37-2.92,1.37-.54,0-1.04-.11-1.48-.32-.44-.22-.91-.59-1.4-1.11v4.96h-2.61v-13.6Zm2.58,4.76c0,1.11,.22,1.93,.66,2.45,.44,.53,.97,.79,1.6,.79s1.11-.24,1.51-.73c.4-.49,.6-1.28,.6-2.39,0-1.03-.21-1.8-.62-2.3-.41-.5-.93-.75-1.54-.75s-1.17,.25-1.59,.74c-.42,.49-.63,1.22-.63,2.18Z"/><path d="M180.08,246.03l-2.37-.43c.27-.95,.72-1.66,1.37-2.12,.65-.46,1.62-.69,2.89-.69,1.16,0,2.03,.14,2.6,.41,.57,.28,.97,.62,1.2,1.05,.23,.42,.35,1.2,.35,2.33l-.03,3.04c0,.87,.04,1.5,.12,1.92,.08,.41,.24,.85,.47,1.32h-2.58c-.07-.17-.15-.43-.25-.77-.04-.16-.07-.26-.09-.31-.45,.43-.92,.76-1.43,.97-.51,.22-1.05,.32-1.62,.32-1.01,0-1.81-.28-2.4-.83-.58-.55-.88-1.25-.88-2.09,0-.56,.13-1.05,.4-1.49,.27-.44,.64-.77,1.12-1,.48-.23,1.17-.43,2.07-.61,1.22-.23,2.06-.44,2.53-.64v-.26c0-.5-.12-.86-.37-1.07-.25-.21-.71-.32-1.4-.32-.46,0-.83,.09-1.08,.27s-.47,.5-.63,.96Zm3.49,2.12c-.33,.11-.86,.24-1.59,.4-.72,.15-1.2,.31-1.42,.45-.34,.24-.51,.55-.51,.92s.14,.68,.41,.95c.27,.27,.62,.4,1.04,.4,.47,0,.92-.15,1.35-.46,.32-.24,.52-.52,.62-.86,.07-.22,.1-.65,.1-1.27v-.52Z"/><path d="M197.29,245.93l-2.57,.46c-.09-.51-.28-.9-.59-1.16-.31-.26-.7-.39-1.19-.39-.65,0-1.17,.22-1.55,.67-.39,.45-.58,1.2-.58,2.25,0,1.17,.2,2,.59,2.48s.92,.72,1.58,.72c.49,0,.9-.14,1.21-.42,.32-.28,.54-.77,.67-1.45l2.56,.44c-.27,1.17-.78,2.06-1.53,2.66-.75,.6-1.77,.9-3.03,.9-1.44,0-2.59-.46-3.45-1.36-.86-.91-1.28-2.17-1.28-3.78s.43-2.89,1.29-3.8,2.02-1.36,3.49-1.36c1.2,0,2.15,.26,2.86,.77,.71,.52,1.22,1.3,1.53,2.36Z"/><path d="M199.26,241.69v-2.41h2.61v2.41h-2.61Zm0,11.19v-9.85h2.61v9.85h-2.61Z"/><path d="M209.06,243.02v2.08h-1.78v3.97c0,.8,.02,1.27,.05,1.41,.03,.13,.11,.24,.23,.33,.12,.09,.27,.13,.44,.13,.24,0,.59-.08,1.05-.25l.22,2.02c-.61,.26-1.29,.39-2.06,.39-.47,0-.89-.08-1.27-.24-.38-.16-.65-.36-.83-.61-.18-.25-.3-.59-.37-1.02-.06-.3-.08-.92-.08-1.84v-4.3h-1.2v-2.08h1.2v-1.96l2.62-1.52v3.48h1.78Z"/><path d="M212.82,246.03l-2.37-.43c.27-.95,.72-1.66,1.37-2.12s1.61-.69,2.89-.69c1.16,0,2.03,.14,2.6,.41,.57,.28,.97,.62,1.2,1.05,.23,.42,.35,1.2,.35,2.33l-.03,3.04c0,.87,.04,1.5,.12,1.92,.08,.41,.24,.85,.47,1.32h-2.58c-.07-.17-.15-.43-.25-.77-.04-.16-.07-.26-.09-.31-.45,.43-.92,.76-1.43,.97-.51,.22-1.05,.32-1.62,.32-1.01,0-1.81-.28-2.4-.83-.58-.55-.88-1.25-.88-2.09,0-.56,.13-1.05,.4-1.49,.27-.44,.64-.77,1.12-1,.48-.23,1.17-.43,2.07-.61,1.22-.23,2.06-.44,2.53-.64v-.26c0-.5-.12-.86-.37-1.07-.25-.21-.71-.32-1.4-.32-.46,0-.83,.09-1.09,.27s-.47,.5-.63,.96Zm3.49,2.12c-.33,.11-.86,.24-1.59,.4-.72,.15-1.2,.31-1.42,.45-.34,.24-.51,.55-.51,.92s.14,.68,.41,.95c.27,.27,.62,.4,1.04,.4,.47,0,.92-.15,1.35-.46,.31-.24,.52-.52,.62-.86,.07-.22,.1-.65,.1-1.27v-.52Z"/><path d="M230.03,245.93l-2.57,.46c-.09-.51-.28-.9-.59-1.16s-.7-.39-1.19-.39c-.65,0-1.17,.22-1.55,.67-.39,.45-.58,1.2-.58,2.25,0,1.17,.2,2,.59,2.48s.92,.72,1.58,.72c.49,0,.9-.14,1.21-.42,.32-.28,.54-.77,.67-1.45l2.56,.44c-.27,1.17-.78,2.06-1.53,2.66-.75,.6-1.77,.9-3.03,.9-1.44,0-2.59-.46-3.45-1.36-.86-.91-1.28-2.17-1.28-3.78s.43-2.89,1.29-3.8c.86-.91,2.02-1.36,3.49-1.36,1.2,0,2.15,.26,2.86,.77,.71,.52,1.22,1.3,1.53,2.36Z"/><path d="M232,241.69v-2.41h2.61v2.41h-2.61Zm0,11.19v-9.85h2.61v9.85h-2.61Z"/><path d="M236.68,247.81c0-.87,.21-1.7,.64-2.51,.43-.81,1.03-1.43,1.81-1.86,.78-.43,1.66-.64,2.62-.64,1.49,0,2.71,.48,3.67,1.45,.95,.97,1.43,2.19,1.43,3.67s-.48,2.73-1.44,3.71c-.96,.98-2.17,1.47-3.63,1.47-.9,0-1.76-.2-2.58-.61-.82-.41-1.44-1.01-1.87-1.79-.43-.79-.64-1.75-.64-2.88Zm2.67,.14c0,.98,.23,1.72,.7,2.24s1.04,.78,1.72,.78,1.25-.26,1.71-.78c.46-.52,.69-1.27,.69-2.26s-.23-1.71-.69-2.23c-.46-.52-1.03-.78-1.71-.78s-1.25,.26-1.72,.78-.7,1.27-.7,2.25Zm1.1-6.13l1.28-2.77h2.92l-2.55,2.77h-1.65Z"/><path d="M257.85,252.87h-2.61v-5.03c0-1.06-.06-1.75-.17-2.06-.11-.31-.29-.55-.54-.73-.25-.17-.55-.26-.9-.26-.45,0-.86,.12-1.22,.37-.36,.25-.6,.57-.74,.98-.13,.41-.2,1.16-.2,2.26v4.46h-2.61v-9.85h2.42v1.45c.86-1.11,1.94-1.67,3.25-1.67,.58,0,1.1,.1,1.58,.31,.48,.21,.84,.47,1.08,.79,.24,.32,.41,.69,.51,1.09s.14,.99,.14,1.75v6.12Z"/></g></g><g id="c"/><g id="d"><g><path d="M245.89,157.15h-1.8v-7.35s-9.75-6.3-22.19-6.3c-18.29,0-22.19,6.3-22.19,6.3,0,0-3.9-6.3-22.19-6.3-12.45,0-22.19,6.3-22.19,6.3v7.35h-1.2c-3.06,0-5.55,2.48-5.55,5.55v46.79c0,3.06,2.48,5.55,5.55,5.55h91.77c3.06,0,5.55-2.48,5.55-5.55v-46.79c0-3.06-2.48-5.55-5.55-5.55Zm-43.71-5.66c1.59-1.27,7.65-4.4,19.72-4.4,8.36,0,15.5,3.18,18.59,4.8v55.82c-4.23-.68-11.09-1.54-18.59-1.54-5.92,0-14.94,.98-19.72,1.66v-56.35Zm-43.26,.4c3.1-1.62,10.24-4.8,18.59-4.8,12.07,0,18.95,3.31,20.54,4.58v56.16c-4.78-.68-14.62-1.66-20.54-1.66-7.5,0-14.36,.86-18.59,1.54v-55.82Zm-6.75,57.59v-46.79c0-1.07,.87-1.95,1.95-1.95h1.2v50.68h-1.2c-1.07,0-1.95-.87-1.95-1.95Zm3.15,2.55h0s10.35-2.25,22.19-2.25c5.76,0,13.63,.99,18.28,1.65h-37.24c-2.02,.34-3.23,.6-3.23,.6Zm88.77,0s-1.2-.26-3.23-.6h-37.24c4.65-.67,12.52-1.65,18.28-1.65,11.85,0,22.19,2.25,22.19,2.25h0Zm3.75-2.55c0,1.07-.87,1.95-1.95,1.95h-1.8v-50.68h1.8c1.07,0,1.95,.87,1.95,1.95v46.79Z"/><path d="M193.18,156.04l.75-2.28c-17.09-5.65-31.39,2.01-31.99,2.34l1.15,2.1c.14-.08,14.01-7.47,30.09-2.16Z"/><path d="M193.18,162.44l.75-2.28c-17.09-5.65-31.39,2.01-31.99,2.34l1.15,2.1c.14-.08,14.01-7.47,30.09-2.16Z"/><path d="M193.18,168.85l.75-2.28c-17.09-5.65-31.39,2.01-31.99,2.34l1.15,2.1c.14-.07,14.01-7.47,30.09-2.16Z"/><path d="M193.18,175.26l.75-2.28c-17.09-5.65-31.39,2.01-31.99,2.34l1.15,2.1c.14-.07,14.01-7.47,30.09-2.16Z"/><path d="M193.18,181.67l.75-2.28c-17.09-5.65-31.39,2.01-31.99,2.34l1.15,2.1c.14-.07,14.01-7.47,30.09-2.16Z"/><path d="M193.18,188.07l.75-2.28c-17.09-5.65-31.39,2.01-31.99,2.34l1.15,2.1c.14-.07,14.01-7.47,30.09-2.16Z"/><path d="M193.18,194.48l.75-2.28c-17.09-5.65-31.39,2.01-31.99,2.34l1.15,2.1c.14-.07,14.01-7.47,30.09-2.16Z"/><path d="M193.18,200.89l.75-2.28c-17.09-5.65-31.39,2.01-31.99,2.34l1.15,2.1c.14-.08,14.01-7.47,30.09-2.16Z"/><path d="M236.84,158.2l1.15-2.1c-.6-.33-14.9-7.98-31.99-2.34l.75,2.28c16.08-5.31,29.95,2.09,30.09,2.16Z"/><path d="M236.84,164.61l1.15-2.1c-.6-.33-14.9-7.98-31.99-2.34l.75,2.28c16.08-5.31,29.95,2.09,30.09,2.16Z"/><path d="M236.84,171.01l1.15-2.1c-.6-.33-14.9-7.98-31.99-2.34l.75,2.28c16.08-5.31,29.95,2.09,30.09,2.16Z"/><path d="M236.84,177.42l1.15-2.1c-.6-.33-14.9-7.98-31.99-2.34l.75,2.28c16.08-5.31,29.95,2.09,30.09,2.16Z"/><path d="M236.84,183.83l1.15-2.1c-.6-.33-14.9-7.98-31.99-2.34l.75,2.28c16.08-5.31,29.95,2.09,30.09,2.16Z"/><path d="M236.84,190.23l1.15-2.1c-.6-.33-14.9-7.98-31.99-2.34l.75,2.28c16.08-5.31,29.95,2.09,30.09,2.16Z"/><path d="M236.84,196.64l1.15-2.1c-.6-.33-14.9-7.98-31.99-2.34l.75,2.28c16.08-5.31,29.95,2.09,30.09,2.16Z"/><path d="M237.99,200.94c-.6-.33-14.9-7.98-31.99-2.34l.75,2.28c16.08-5.31,29.95,2.09,30.09,2.16l1.15-2.1Z"/></g><path d="M252.24,278.38h-104.09l-30.47-31.14v-106.07l27.58-27.68h108.24l28.81,29.34v105.68l-30.08,29.87Zm-101.99-4.98h99.94l27.15-26.96v-101.57l-25.93-26.4h-104.08l-24.67,24.76v101.98l27.59,28.19Z"/></g></svg>